<?xml version="1.0" encoding="utf-8"?>
<!-- Generator: Adobe Illustrator 15.0.0, SVG Export Plug-In . SVG Version: 6.00 Build 0)  -->
<!DOCTYPE svg PUBLIC "-//W3C//DTD SVG 1.1//EN" "http://www.w3.org/Graphics/SVG/1.1/DTD/svg11.dtd">
<svg version="1.1" xmlns="http://www.w3.org/2000/svg" xmlns:xlink="http://www.w3.org/1999/xlink" x="0px" y="0px"
	 width="2904.5px" height="445.146px" viewBox="-732 445.147 2904.5 445.146" enable-background="new -732 445.147 2904.5 445.146"
	 xml:space="preserve">
<defs>
	<linearGradient id="church-woo-nav-gold" x1="-732" y1="667.72" x2="2172.5" y2="667.72" gradientUnits="userSpaceOnUse">
		<stop offset="0%" stop-color="#fff4c3" />
		<stop offset="22%" stop-color="#f4d98a" />
		<stop offset="48%" stop-color="#d6a63f" />
		<stop offset="72%" stop-color="#f0d587" />
		<stop offset="100%" stop-color="#8d6418" />
	</linearGradient>
</defs>
<g id="BLOOM">
	<g id="M_3_">
		<path id="M_4_" fill="url(#church-woo-nav-gold)" d="M2063.137,548.371v267.641h-36.646v-185.9l-84.119,93.936l-84.115-93.936v185.898h-36.647
			V548.371l120.764,141.729L2063.137,548.371z M1942.373,668.511l-134.765-158.154v319.654h64.646V666.732l70.117,78.301
			l70.118-78.301v163.277h64.646V510.355L1942.373,668.511z"/>
		<path id="M_2_" fill="url(#church-woo-nav-gold)" d="M1942.118,827.125c-7.438-15.141-8.53-31.238,0.374-45.508
			c5.557,9.637,6.94,21.078,4.477,32.031c-1.061,4.67-2.702,9.273-4.676,13.822C1942.185,827.257,1942.118,827.125,1942.118,827.125
			 M1975.226,734.871c-5.124,6.09-10.931,12.383-16.591,17.963c-4.543,4.727-9.799,8.883-14.247,13.789
			c-0.759,0.828-1.48,1.668-2.185,2.516c-3.817-4.693-8.11-8.998-12.457-13.012c-1.994-2.021-4.951-4.9-6.878-6.918
			c-14.554-15.371-28.493-31.803-37.963-50.881c4.743,14.146,12.667,27.047,21.149,39.248c4.157,5.879,8.864,11.949,13.589,17.516
			c1.057,5.195,1.048,11.146-2.612,14.848c-4.318,4.027-11.576,5.232-16.556,1.66c-3.563-2.516-6.696-6.924-6.376-11.488
			c0.155-2.75,1.899-5.582,4.571-6.307c2.684-0.811,5.536,0.092,6.271,3.109c0.37,1.439,0.11,3.189-1.238,4.469
			c0.876-0.26,1.706-0.865,2.271-1.703c1.803-2.744,1.03-6.648-1.813-8.652c-3.854-2.74-9.434-0.918-11.853,2.785
			c-5.145,7.205-1.049,16.813,5.5,21.568c6.689,5.104,16.838,3.697,22.594-2.205c3.27-3.539,4.237-8.137,3.854-12.732
			c4.471,4.908,9.534,9.471,13.646,14.541c-9.738,15.092-11.014,32.594-2.42,49.865c1.821,3.84,4.597,8.104,6.803,11.75
			c11.66-15.428,17.817-33.813,9.358-52.463c-1.35-3.023-2.969-5.9-4.778-8.65c4.121-5.23,9.031-10.158,13.541-15.234
			c-0.43,4.66,0.519,9.336,3.834,12.924c5.756,5.904,15.9,7.311,22.593,2.205c3.298-2.414,5.678-5.736,7.036-9.508
			c2.819-6.805-1.838-17.172-10.181-16.078c-4.667,0.381-7.647,6.045-5.022,9.887c0.566,0.836,1.396,1.443,2.271,1.701
			c-2.441-2.244-1.426-6.412,1.239-7.525c2.397-0.855,5.447-0.002,6.96,2.238c3.663,5.266-0.302,12.34-4.973,15.506
			c-4.979,3.572-12.235,2.365-16.555-1.66c-3.726-3.766-3.668-9.863-2.555-15.121c5.729-6.83,11.348-14.16,16.293-21.494
			c7.354-10.973,14.16-22.49,18.525-34.996C1993.604,711.669,1984.653,723.615,1975.226,734.871"/>
		<path id="M_1_" fill="url(#church-woo-nav-gold)" d="M1840.024,685.919c-0.88,0-1.729-0.17-2.5-0.471v137.561h5.002V685.449
			C1841.745,685.75,1840.906,685.919,1840.024,685.919 M2044.256,685.919c-0.881,0-1.729-0.17-2.5-0.471v137.561h5V685.449
			C2045.974,685.75,2045.135,685.919,2044.256,685.919 M1834.029,678.925c0,3.311,2.684,5.994,5.993,5.994
			c3.311,0,5.993-2.684,5.993-5.994s-2.684-5.992-5.993-5.992S1834.029,675.615,1834.029,678.925 M2038.259,678.925
			c0,3.311,2.684,5.994,5.992,5.994c3.312,0,5.994-2.684,5.994-5.994s-2.684-5.992-5.994-5.992
			C2040.942,672.933,2038.259,675.615,2038.259,678.925 M1837.524,672.4c0.771-0.313,1.62-0.471,2.5-0.471
			c0.882,0,1.721,0.158,2.502,0.471v-59.91l-4.911-5.49l-0.091-0.1V672.4z M2041.756,612.419v59.98
			c0.771-0.313,1.619-0.471,2.5-0.471c0.88,0,1.72,0.158,2.5,0.471v-65.59L2041.756,612.419z"/>
		<path id="M_." fill="url(#church-woo-nav-gold)" d="M1919.094,785.171c0,1.762,1.42,3.182,3.172,3.182c1.75,0,3.181-1.42,3.181-3.182
			c0-1.752-1.431-3.172-3.181-3.172C1920.513,782,1919.094,783.419,1919.094,785.171 M1961.444,785.171
			c0,1.762,1.421,3.182,3.171,3.182c1.76,0,3.182-1.42,3.182-3.182c0-1.752-1.422-3.172-3.182-3.172
			C1962.865,782,1961.444,783.419,1961.444,785.171 M1992.267,725.611c0,1.625,1.319,2.936,2.938,2.936
			c1.625,0,2.937-1.311,2.937-2.936s-1.312-2.938-2.937-2.938C1993.588,722.675,1992.267,723.986,1992.267,725.611
			 M1885.788,725.611c0,1.689,1.373,3.057,3.058,3.057c1.691,0,3.058-1.365,3.058-3.057c0-1.693-1.365-3.059-3.058-3.059
			C1887.161,722.554,1885.788,723.919,1885.788,725.611"/>
		<path id="M" fill="url(#church-woo-nav-gold)" d="M1909.177,592.636c-15.961-15.604-31.096-30.396-36.726-49.555
			c33.506,10.529,48.844,38.465,59.598,73.604C1925.029,608.128,1917.01,600.291,1909.177,592.636 M2012.294,543.082
			c-5.628,19.156-20.764,33.951-36.723,49.553c-7.834,7.656-15.854,15.494-22.875,24.053
			C1963.449,581.548,1978.787,553.611,2012.294,543.082 M2015.156,537.062c-45.161,11.764-61.063,52.371-72.783,98.178
			c-11.719-45.807-27.622-86.414-72.78-98.178l-3.925-1.023l0.851,3.965c4.856,22.672,21.521,38.961,39.165,56.207
			c10.865,10.621,22.099,21.602,30.27,34.186c1.35,5.063,2.645,10.238,3.921,15.502v30.289h5.001v-30.289
			c1.276-5.258,2.572-10.439,3.923-15.5c8.168-12.584,19.402-23.566,30.27-34.189c17.643-17.244,34.308-33.533,39.164-56.205
			l0.85-3.965L2015.156,537.062z M1904.332,534.74c0,2.402,1.952,4.354,4.354,4.354c2.411,0,4.361-1.951,4.361-4.354
			c0-2.41-1.95-4.361-4.361-4.361C1906.284,530.378,1904.332,532.33,1904.332,534.74 M1972.442,534.74
			c0,2.402,1.951,4.354,4.362,4.354c2.4,0,4.353-1.951,4.353-4.354c0-2.41-1.951-4.361-4.353-4.361
			C1974.393,530.378,1972.442,532.33,1972.442,534.74 M1938.007,577.339c-5.943-20.621-11.107-38.543,4.363-60.268
			c15.477,21.725,10.313,39.645,4.365,60.268c-1.13,3.918-2.271,7.891-3.302,11.967c4.328-21.148-2.359-38.852-2.359-38.852
			c-3.153,14.945-2.19,27.166-0.839,34.771C1939.51,582.564,1938.756,579.941,1938.007,577.339 M1940.397,511.353
			c-19.424,24.941-13.483,45.553-7.194,67.373c2.84,9.85,9.169,33.605,9.169,33.605l0.056-0.002
			c0.346,0.002,6.272-23.754,9.114-33.605c6.291-21.82,12.232-42.43-7.198-67.371l-1.973-2.533L1940.397,511.353z"/>
	</g>
	<g id="O_3_2_">
		<path id="O_3_F_1_" fill="url(#church-woo-nav-gold)" d="M1664.948,561.531c-1.022,0.928-1.1,2.51-0.172,3.531
			c0.271,0.299,26.983,30.209,21.447,61.412c-3.31,18.648-16.775,29.645-33.826,43.563c-6.209,5.07-12.63,10.314-19.237,16.455
			c-1.191,1.109-2.335,2.219-3.447,3.332c-0.104-3.617,0.31-7.289,1.913-10.494c1.292-2.186,2.46-4.572,2.582-7.156
			c0.269-4.156-1.508-8.32-4.731-10.834c-2.441-1.998-6.54-1.66-7.771,1.512c-0.402,0.908-0.553,1.906-0.521,2.885
			c0.033-1.928,0.929-3.967,2.656-4.785c5.872-2.127,9.693,6.348,8.874,11.072c-0.25,2.928-2.269,5.201-3.548,7.711
			c-1.839,4.061-2.3,8.473-2.168,12.883c-28.622,30.492-28.551,61.357-28.521,63.123v36.348c0,1.381,1.117,2.5,2.496,2.5h0.004
			c0.175,0,0.347-0.018,0.512-0.053c0.358,0.539,0.924,0.939,1.61,1.068c0.157,0.029,0.313,0.045,0.469,0.045
			c1.177,0,2.227-0.836,2.453-2.033c0.067-0.354,4.454-22.359,19.024-41.889c8.584-4.176,18.591-7.555,28.142-5.514
			c1.254,0.316,2.565,0.813,3.625,1.557c0.229,0.143,0.584,0.355,0.763,0.563c4.267,3.285,3.581,10.752-0.845,13.754
			c-5.438,3.93-9.312-0.754-10.554-6.047c-0.2-0.758-0.354-1.533-0.532-2.307c0.057,0.787,0.086,1.584,0.166,2.379
			c0.598,6.867,5.281,11.926,12.223,8.045c6.202-3.465,7.709-11.951,3.768-17.447c6.119,0.367,12.249,0.17,18.332-1.111
			c5.213-0.939,8.662-5.699,5.808-10.682c-2.478-4.35-8.005-6.139-12.521-4.592c2.257-0.18,4.489,0.211,6.346,1.244
			c4.185,2.051,7.061,8.689,1.099,10.283c-0.796,0.27-2.154,0.391-3.007,0.52c-8.098,0.74-16.52-0.084-24.64-1.063
			c-6.243-1.77-13.597-0.951-20.218,1.186c7.86-7.879,17.83-14.545,30.404-17.996c9.354-2.564,18.768-4.24,27.869-5.861
			c31.053-5.525,60.383-10.742,73.027-50.377c0.419-1.314-0.308-2.723-1.623-3.141c-1.314-0.42-2.722,0.307-3.142,1.621
			c-11.729,36.758-38.333,41.492-69.14,46.975c-9.215,1.641-18.741,3.334-28.316,5.961c-20.393,5.598-37.411,20.02-49.211,41.709
			c-2.52,4.633-4.547,9.113-6.163,13.168c3.955-13.313,12.752-32.359,32.324-50.514c16.23-15.055,39.093-21.146,59.264-26.521
			c9.396-2.506,18.271-4.869,25.647-7.928c24.049-9.971,40.769-36.439,37.271-59.002c-0.211-1.363-1.494-2.295-2.853-2.088
			c-1.365,0.211-2.3,1.488-2.089,2.854c3.166,20.426-12.195,44.479-34.243,53.617c-7.07,2.932-15.791,5.256-25.021,7.715
			c-20.734,5.523-44.235,11.787-61.377,27.688c-18.112,16.799-27.396,34.145-32.153,47.57v-12.209
			c0-19.854,23.604-52.645,57.471-67.955c10.056-4.547,19.717-7.441,29.062-10.24c19.558-5.859,36.447-10.92,45.996-28.74
			c15.041-28.078,4.143-62.777-9.762-83.965c-0.757-1.154-2.309-1.475-3.462-0.719c-1.153,0.758-1.477,2.307-0.719,3.463
			c13.151,20.039,23.539,52.717,9.534,78.859c-8.567,15.988-23.772,20.545-43.024,26.311c-3.68,1.105-7.563,2.273-11.567,3.578
			c26.483-19.34,38.097-35.367,25.683-82.172c-0.354-1.336-1.722-2.133-3.058-1.777c-1.334,0.355-2.129,1.725-1.775,3.059
			c6.622,24.967,6.448,40.996-0.58,53.602c-6.796,12.188-19.844,21.137-37.902,33.525l-2.025,1.389
			c-16.743,7.922-32.294,20.98-43.206,35.045c4.891-9.18,12.021-19.172,22.422-28.84c6.491-6.035,12.849-11.225,18.996-16.244
			c17.146-14,31.954-26.088,35.586-46.563c5.971-33.646-21.496-64.355-22.669-65.646c-0.493-0.543-1.17-0.818-1.851-0.818
			C1666.028,560.882,1665.427,561.097,1664.948,561.531"/>
		<path id="O_3_f_1_" fill="url(#church-woo-nav-gold)" d="M1621.586,769.212c-5.841,5.402-9.418,13.322-9.282,21.371
			c0.29,4.736,7.221,4.275,6.873-0.463c-0.749-6.621,0.908-13.518,4.357-19.289c1.194-2.027,2.671-3.926,4.439-5.674
			C1625.643,766.048,1623.503,767.498,1621.586,769.212"/>
		<path id="O3_1_" fill="url(#church-woo-nav-gold)" d="M1514.298,536.41c3.88,2.928,7.63,6.02,11.238,9.27c23.642-15.738,51.921-24.898,82.301-24.898
			c82.609,0,149.82,67.799,149.82,151.139c0,83.352-67.211,151.15-149.82,151.15c-30.38,0-58.67-9.17-82.311-24.91
			c-1.14-0.75-2.26-1.529-3.38-2.32c-3.89-2.738-7.64-5.66-11.25-8.76c-1.021-0.881-2.029-1.77-3.029-2.67
			c-30.58-27.689-49.851-67.859-49.851-112.49c0-44.619,19.271-84.791,49.851-112.479c-3.601-3.07-7.352-5.961-11.24-8.672
			c-32.34,30.182-52.609,73.32-52.609,121.148c0,47.832,20.271,90.98,52.609,121.162c1,0.939,2.011,1.859,3.03,2.758
			c3.609,3.213,7.369,6.264,11.25,9.143c1.119,0.83,2.239,1.648,3.38,2.449c26.54,18.682,58.8,29.641,93.55,29.641
			c90.33,0,163.82-74.08,163.82-165.15c0-91.059-73.49-165.139-163.82-165.139C1573.088,506.779,1540.838,517.738,1514.298,536.41"
			/>
		<path id="O_3_4_" fill="url(#church-woo-nav-gold)" d="M1721.608,669.458v0.021c0.021,0.809,0.029,1.629,0.029,2.449c0,3.029-0.12,6.029-0.352,9
			c5.281-2.279,10.131-5.488,14.352-9.301c-0.01-4.66-0.271-9.26-0.762-13.777C1731.057,662.699,1726.567,666.429,1721.608,669.458
			 M1582.108,545.689c-0.521,0.109-1.041,0.219-1.561,0.33c-1.25,0.27-2.48,0.568-3.711,0.879c-0.819,0.211-1.63,0.422-2.439,0.641
			c-0.521,0.141-1.029,0.281-1.539,0.43c-1.641,0.471-3.271,0.973-4.881,1.512c-2.42,0.801-4.8,1.67-7.149,2.609
			c-2.359,0.939-4.681,1.949-6.96,3.029c-0.479,0.221-0.95,0.451-1.431,0.68c-1.851,0.9-3.68,1.842-5.48,2.842
			c-0.009,0-0.02,0-0.028,0.01c-1.359,0.74-2.7,1.51-4.021,2.299c0,0-0.009,0-0.009,0.012c-0.529,0.311-1.04,0.629-1.561,0.949
			h-0.01c-0.79,0.48-1.569,0.98-2.351,1.48c-0.351,0.229-0.699,0.449-1.04,0.688v0.01h-0.01c-0.94,0.611-1.87,1.242-2.79,1.893
			c-1.261,0.881-2.511,1.789-3.74,2.721c-0.01,0-0.01,0-0.021,0.01c-1.22,0.92-2.43,1.859-3.619,2.838
			c-0.37,0.291-0.729,0.592-1.091,0.893c-0.01,0-0.01,0.01-0.01,0.01c-0.431,0.352-0.859,0.711-1.29,1.08
			c-0.58,0.51-1.17,1.01-1.74,1.521v0.01c-0.189,0.16-0.369,0.318-0.56,0.49c-1.53,1.35-3.03,2.76-4.49,4.209
			c-0.359,0.359-0.729,0.73-1.09,1.092c-1.811,1.818-3.57,3.697-5.261,5.629c-0.851,0.961-1.68,1.93-2.51,2.92v0.01
			c-0.82,0.99-1.631,1.99-2.42,3.01c-1.979,2.529-3.87,5.141-5.65,7.82c-0.359,0.541-0.71,1.08-1.061,1.621
			c-0.699,1.088-1.38,2.178-2.05,3.289c-0.37,0.607-0.729,1.221-1.09,1.84c-11.11,19.07-17.471,41.271-17.471,64.939
			c0,38.58,16.899,73.238,43.641,96.881c1,0.881,2.01,1.738,3.04,2.59c0,0,0,0.01,0.01,0.01c3.591,2.99,7.351,5.781,11.261,8.361
			h0.01c1.12,0.738,2.24,1.459,3.391,2.158h0.01c0.29,0.189,0.57,0.371,0.86,0.541h0.01c1.92,1.158,3.86,2.27,5.841,3.33
			c1.979,1.061,3.989,2.068,6.029,3.027c1.359,0.643,2.729,1.25,4.12,1.842c1.579,0.68,3.18,1.32,4.79,1.93
			c1.619,0.609,3.25,1.189,4.89,1.74c1.649,0.551,3.311,1.061,4.979,1.539c0.511,0.15,1.021,0.291,1.54,0.432
			c1.511,0.42,3.04,0.811,4.58,1.158c0.521,0.133,1.04,0.24,1.57,0.359c0.521,0.111,1.039,0.223,1.56,0.332
			c8.311,1.719,16.9,2.619,25.7,2.619c14.029,0,27.54-2.289,40.181-6.52c1.18-0.4,2.359-0.811,3.529-1.24
			c1.17-0.432,2.33-0.881,3.49-1.34c7.569-3.041,14.79-6.801,21.569-11.17c0.971-0.631,1.92-1.271,2.87-1.91c0-0.012,0.01,0,0.01,0
			c0.95-0.66,1.891-1.32,2.82-1.99c1.859-1.35,3.689-2.76,5.47-4.199c0.011-0.01,0.011,0,0.011,0
			c18.77-15.211,33.199-35.631,41.109-59.07c0.271-0.789,0.529-1.59,0.779-2.391c1.21-3.82,1.541-4.613,2.392-8.582
			c-4.99,2.908-10.045,4.354-15.847,6.084c-0.27,0.879-0.244-0.643-0.534,0.229c-0.88,2.621-1.851,5.189-2.91,7.721
			c-0.311,0.76-0.63,1.51-0.97,2.26c-0.62,1.391-1.261,2.771-1.931,4.131c-0.21,0.418-0.41,0.84-0.63,1.26
			c-0.29,0.59-0.601,1.182-0.91,1.76c-0.311,0.592-0.62,1.17-0.939,1.74c-0.319,0.58-0.641,1.158-0.971,1.73
			c-0.319,0.57-0.649,1.129-0.989,1.689c-1.689,2.83-3.5,5.59-5.421,8.26c-0.38,0.539-0.77,1.068-1.159,1.59
			c-0.391,0.531-0.779,1.051-1.189,1.561c-0.46,0.602-0.931,1.199-1.399,1.789c-0.351,0.432-0.689,0.861-1.051,1.279
			c-0.41,0.512-0.84,1.012-1.271,1.512c-0.42,0.5-0.851,0.988-1.29,1.48c-0.42,0.479-0.84,0.947-1.271,1.408
			c-1.34,1.461-2.71,2.891-4.13,4.281c-0.851,0.838-1.72,1.668-2.609,2.488c-0.101,0.092-0.189,0.182-0.29,0.26
			c-1.229,1.131-2.479,2.23-3.75,3.301c-0.71,0.602-1.431,1.18-2.149,1.762c-0.511,0.408-1.021,0.818-1.54,1.209
			c-0.521,0.4-1.04,0.801-1.561,1.189c-0.529,0.391-1.05,0.779-1.591,1.158c-0.529,0.393-1.06,0.762-1.6,1.133
			c-1.07,0.75-2.16,1.479-3.271,2.18c-0.55,0.359-1.101,0.711-1.66,1.051c-1.109,0.699-2.239,1.369-3.38,2.02
			c-0.569,0.33-1.141,0.648-1.721,0.961c-2.399,1.33-4.859,2.559-7.359,3.709c-0.939,0.432-1.891,0.85-2.84,1.25
			c-0.371,0.16-0.74,0.318-1.109,0.471c-0.4,0.17-0.801,0.33-1.211,0.49c-0.609,0.248-1.229,0.49-1.85,0.721
			c-0.62,0.238-1.25,0.469-1.87,0.688c-1.261,0.461-2.54,0.891-3.83,1.301c-0.511,0.16-1.011,0.32-1.521,0.471
			c-0.521,0.16-1.041,0.311-1.569,0.471c-0.38,0.109-0.771,0.221-1.149,0.32c-3.181,0.879-6.41,1.619-9.689,2.209
			c-0.57,0.109-1.131,0.211-1.7,0.301c-0.511,0.078-1.011,0.168-1.521,0.238c-0.551,0.09-1.09,0.162-1.63,0.24
			c-0.08,0.012-0.149,0.021-0.229,0.029c-0.341,0.051-0.69,0.09-1.03,0.131c-3.91,0.5-7.89,0.801-11.91,0.879h-0.188
			c-0.69,0.012-1.391,0.021-2.091,0.021c-3.05,0-6.061-0.121-9.05-0.371c-0.761-0.059-1.521-0.131-2.28-0.211
			c-0.649-0.059-1.29-0.129-1.939-0.197c-0.021-0.012-0.04-0.012-0.062-0.012c-1.009-0.119-2.009-0.25-2.999-0.4
			c-0.87-0.119-1.729-0.258-2.581-0.408c-0.379-0.061-0.759-0.119-1.129-0.199c-0.62-0.102-1.229-0.223-1.84-0.34
			c-0.271-0.053-0.54-0.102-0.811-0.16c-0.75-0.15-1.5-0.311-2.24-0.48c-0.141-0.031-0.29-0.07-0.43-0.1
			c-0.91-0.211-1.82-0.432-2.73-0.672c-0.739-0.188-1.489-0.389-2.229-0.6c-0.301-0.08-0.61-0.16-0.91-0.25
			c-0.029-0.01-0.069-0.02-0.102-0.029c-1.77-0.52-3.528-1.07-5.27-1.67c-0.92-0.32-1.84-0.641-2.75-0.979
			c-0.029-0.012-0.05-0.021-0.08-0.031c-0.9-0.34-1.8-0.689-2.68-1.049c-0.841-0.332-1.67-0.682-2.49-1.041
			c-0.18-0.07-0.359-0.15-0.55-0.24c-0.681-0.289-1.351-0.59-2.021-0.91c-0.141-0.059-0.28-0.119-0.42-0.189
			c-0.851-0.391-1.689-0.799-2.53-1.219c-0.87-0.432-1.739-0.883-2.601-1.332c-0.039-0.02-0.079-0.039-0.12-0.059
			c-1.669-0.9-3.319-1.832-4.95-2.801c-1.148-0.68-2.279-1.381-3.398-2.109h-0.011c-0.54-0.35-1.091-0.711-1.62-1.07
			c-0.43-0.289-0.859-0.58-1.289-0.871c-0.479-0.328-0.961-0.668-1.431-1.01c-0.29-0.199-0.58-0.408-0.859-0.619
			c-0.45-0.318-0.891-0.641-1.32-0.971c-0.22-0.158-0.43-0.318-0.64-0.479c-0.53-0.4-1.051-0.801-1.57-1.221
			c-0.439-0.34-0.869-0.689-1.3-1.039c-0.41-0.332-0.819-0.67-1.229-1.012h-0.011c-1.029-0.859-2.039-1.729-3.029-2.629
			c-0.721-0.65-1.439-1.311-2.149-1.971c-0.79-0.75-1.58-1.51-2.351-2.291c-0.55-0.549-1.102-1.109-1.649-1.668
			c-0.141-0.15-0.29-0.313-0.44-0.471c-1.159-1.221-2.289-2.461-3.39-3.73c-0.24-0.27-0.479-0.539-0.71-0.811
			c-0.54-0.631-1.069-1.26-1.591-1.908c-0.63-0.75-1.229-1.512-1.83-2.291c-0.01-0.012-0.02-0.021-0.029-0.029
			c-0.601-0.771-1.182-1.551-1.76-2.332c-0.551-0.738-1.08-1.479-1.601-2.229c-0.149-0.199-0.29-0.398-0.42-0.609
			c-0.38-0.539-0.761-1.09-1.12-1.641c-0.2-0.299-0.4-0.6-0.59-0.91c-0.281-0.408-0.54-0.82-0.801-1.229
			c-0.279-0.43-0.551-0.869-0.819-1.311c-0.149-0.23-0.29-0.469-0.431-0.711c-0.359-0.578-0.71-1.17-1.051-1.758
			c-0.87-1.482-1.699-2.992-2.489-4.512c-0.351-0.65-0.681-1.311-1.011-1.971c-0.068-0.141-0.14-0.279-0.209-0.42
			c-0.319-0.639-0.641-1.299-0.939-1.951c-0.07-0.129-0.13-0.27-0.19-0.396c-0.35-0.74-0.688-1.492-1.01-2.24l-0.01-0.01
			c-0.351-0.791-0.69-1.582-1.011-2.371c-0.25-0.602-0.489-1.201-0.729-1.801c-0.399-1.012-0.78-2.029-1.149-3.051
			c-0.301-0.818-0.58-1.641-0.859-2.461c-0.021-0.059-0.04-0.117-0.061-0.17c-0.261-0.768-0.5-1.539-0.74-2.318
			c-0.51-1.609-0.971-3.238-1.399-4.881c-0.041-0.109-0.069-0.229-0.101-0.359c-0.359-1.389-0.689-2.789-1-4.209
			c-0.01-0.021-0.01-0.041-0.01-0.061c-0.109-0.479-0.221-0.961-0.311-1.439c-0.15-0.73-0.3-1.459-0.431-2.189
			c-0.141-0.762-0.279-1.52-0.399-2.281c-0.29-1.76-0.54-3.529-0.75-5.311c-0.101-0.889-0.2-1.789-0.281-2.678
			c-0.09-0.9-0.158-1.801-0.219-2.701c-0.01-0.08-0.021-0.17-0.021-0.26c-0.06-0.801-0.1-1.609-0.14-2.42
			c-0.01-0.25-0.021-0.49-0.03-0.73c-0.028-0.66-0.05-1.309-0.068-1.959v-0.271c-0.021-0.852-0.03-1.699-0.03-2.551v-0.02
			c0-0.99,0.01-1.971,0.04-2.949c0.02-0.98,0.061-1.951,0.109-2.93v-0.012c0.029-0.67,0.069-1.35,0.119-2.02
			c0-0.09,0.012-0.18,0.021-0.271c0.03-0.438,0.061-0.867,0.1-1.299c0-0.041,0-0.08,0.011-0.119c0.051-0.711,0.12-1.422,0.189-2.121
			c0.101-0.961,0.21-1.92,0.33-2.879c0.11-0.883,0.229-1.762,0.36-2.641c0.04-0.25,0.079-0.502,0.119-0.74
			c0.119-0.779,0.25-1.551,0.381-2.318c0.108-0.621,0.229-1.23,0.35-1.842c0.07-0.398,0.15-0.789,0.24-1.189
			c0.568-2.791,1.239-5.539,2.01-8.25c0.19-0.67,0.391-1.33,0.59-1.99c0.01-0.049,0.021-0.09,0.039-0.129
			c0.111-0.371,0.221-0.74,0.342-1.1c0.989-3.131,2.101-6.201,3.34-9.201c0.149-0.361,0.301-0.709,0.449-1.07
			c0.2-0.461,0.392-0.92,0.602-1.381c0.18-0.418,0.369-0.828,0.56-1.25c0.05-0.119,0.101-0.229,0.15-0.328
			c0.38-0.842,0.771-1.67,1.17-2.49c0.01-0.02,0.021-0.029,0.021-0.029c0.399-0.83,0.819-1.65,1.239-2.471
			c0.091-0.182,0.181-0.352,0.28-0.521c0.3-0.588,0.62-1.18,0.949-1.77c0.271-0.52,0.561-1.029,0.859-1.539
			c0.07-0.15,0.16-0.303,0.24-0.439c0.37-0.65,0.75-1.291,1.141-1.932c0.369-0.641,0.76-1.262,1.149-1.891
			c0.46-0.738,0.939-1.479,1.42-2.209c0.05-0.08,0.11-0.17,0.16-0.25c0.529-0.791,1.06-1.582,1.609-2.359
			c0-0.012,0-0.012,0.011-0.021c0.51-0.729,1.029-1.461,1.56-2.17c1.289-1.77,2.63-3.5,4.03-5.189c0.55-0.672,1.109-1.34,1.68-2
			c0.641-0.74,1.28-1.461,1.931-2.182c0.061-0.059,0.12-0.119,0.181-0.188c0.58-0.641,1.17-1.271,1.76-1.893
			c0.131-0.139,0.26-0.27,0.4-0.408c0.58-0.609,1.18-1.221,1.79-1.82c0.608-0.609,1.219-1.209,1.85-1.801
			c0.21-0.199,0.431-0.408,0.65-0.607c0.56-0.531,1.13-1.051,1.71-1.563c0.029-0.039,0.06-0.059,0.09-0.09
			c0.99-0.898,2-1.77,3.029-2.631c0.04-0.029,0.07-0.059,0.109-0.088c0.67-0.561,1.34-1.1,2.021-1.641
			c0.189-0.16,0.39-0.32,0.59-0.471c0.561-0.439,1.12-0.881,1.689-1.301c0.729-0.559,1.471-1.1,2.21-1.631
			c0.569-0.408,1.149-0.818,1.729-1.219c0.26-0.182,0.521-0.359,0.78-0.529c0.619-0.42,1.239-0.832,1.859-1.24
			c0.09-0.061,0.189-0.121,0.279-0.18c0.619-0.402,1.24-0.791,1.86-1.17c0.449-0.281,0.89-0.551,1.34-0.813
			c0.069-0.051,0.141-0.09,0.209-0.131c1.062-0.629,2.131-1.248,3.211-1.848c0.54-0.301,1.08-0.592,1.63-0.881
			c0.54-0.289,1.091-0.58,1.641-0.859c0.551-0.281,1.109-0.561,1.659-0.832c0.49-0.238,0.971-0.479,1.461-0.699
			c0.141-0.078,0.289-0.139,0.431-0.211c0.479-0.219,0.96-0.447,1.449-0.656c0.811-0.383,1.63-0.73,2.45-1.08
			c0.529-0.223,1.061-0.441,1.59-0.65c0.38-0.16,0.761-0.311,1.149-0.461c0.58-0.229,1.16-0.461,1.74-0.67
			c0.34-0.129,0.67-0.25,1.01-0.369c0.439-0.162,0.891-0.322,1.341-0.48c0.319-0.109,0.64-0.221,0.97-0.328
			c0.939-0.322,1.891-0.631,2.851-0.922c0.5-0.158,1.021-0.311,1.529-0.459c0.359-0.111,0.721-0.211,1.091-0.32
			c0.05-0.01,0.101-0.029,0.149-0.039c0.67-0.191,1.351-0.371,2.029-0.551c0.891-0.23,1.78-0.449,2.681-0.66
			c0.03-0.01,0.068-0.021,0.109-0.021c0.899-0.219,1.8-0.42,2.71-0.6c0.851-0.182,1.7-0.352,2.56-0.5
			c0.151-0.031,0.291-0.051,0.44-0.08c1.681-0.299,3.37-0.57,5.08-0.791c0.34-0.049,0.67-0.09,1.011-0.129
			c0.811-0.1,1.63-0.189,2.45-0.271c0.869-0.09,1.75-0.17,2.629-0.229c0.95-0.08,1.89-0.141,2.851-0.189h0.04
			c0.851-0.041,1.699-0.08,2.561-0.1c0.24-0.01,0.49-0.021,0.729-0.021c0.851-0.02,1.7-0.029,2.561-0.029
			c7.359,0,14.561,0.709,21.529,2.059c1.091,0.211,2.181,0.441,3.261,0.691c7.08,1.578,13.91,3.84,20.43,6.699
			c1.15,0.512,2.301,1.029,3.431,1.58c3.36,1.609,6.63,3.379,9.801,5.301c1.47,0.891,2.92,1.811,4.34,2.77
			c0.859,0.57,1.71,1.16,2.55,1.76c0.801,0.561,1.591,1.143,2.381,1.74c0.779,0.58,1.56,1.182,2.33,1.789
			c0.77,0.602,1.529,1.221,2.279,1.852c2.979,2.48,5.819,5.102,8.529,7.869c1.17,1.18,2.301,2.393,3.41,3.621
			c0.721,0.799,1.431,1.6,2.12,2.418c0.538,0.643,1.079,1.281,1.601,1.932c0.459,0.561,0.909,1.131,1.359,1.701
			c0.04,0.049,0.069,0.09,0.1,0.139c0.601,0.752,1.181,1.52,1.75,2.291c0.57,0.77,1.141,1.539,1.681,2.33
			c1.08,1.52,2.12,3.08,3.12,4.658c2.061,3.252,3.96,6.621,5.699,10.092c0.08,0.158,0.16,0.328,0.24,0.49
			c0.311,0.619,0.609,1.25,0.91,1.879c0.34,0.711,0.66,1.42,0.979,2.131c0.359,0.818,0.72,1.641,1.061,2.461
			c0.29,0.688,0.579,1.379,0.851,2.068c0.1,0.25,0.199,0.5,0.289,0.75c0.211,0.521,0.41,1.051,0.601,1.58
			c2.7,7.248,4.681,14.84,5.88,22.689c3.03-2.67,5.62-5.869,7.761-9.861c1.18-2.209,2.18-4.469,3-6.768
			c-6.301-23.08-18.811-43.57-35.601-59.572c-0.54-0.508-1.09-1.02-1.641-1.529c-2.521-2.299-5.141-4.529-7.84-6.641
			c-0.801-0.619-1.609-1.238-2.42-1.838c-0.819-0.611-1.641-1.201-2.471-1.791c-0.83-0.58-1.66-1.16-2.5-1.73
			c-0.84-0.568-1.699-1.119-2.55-1.67c-0.86-0.551-1.721-1.08-2.59-1.609c-0.65-0.391-1.301-0.779-1.95-1.158
			c-0.49-0.291-0.979-0.572-1.479-0.852c-0.979-0.551-1.979-1.1-2.979-1.631c-0.51-0.26-1.01-0.52-1.521-0.779
			c-0.811-0.42-1.62-0.82-2.439-1.229c-0.011,0.01-0.011,0.01-0.011,0c-1.239-0.602-2.479-1.182-3.739-1.742
			c-1.25-0.559-2.521-1.098-3.79-1.619h-0.01c-1.131-0.461-2.271-0.91-3.421-1.34c-0.579-0.209-1.159-0.42-1.739-0.631
			c-0.58-0.209-1.16-0.408-1.75-0.607c-12.82-4.371-26.561-6.74-40.83-6.74C1599.008,543.07,1590.418,543.97,1582.108,545.689"/>
	</g>
	<g id="O_2_3_">
		<path id="O_2_2_" fill="url(#church-woo-nav-gold)" d="M1286.168,671.628c4.22,3.813,9.07,7.021,14.35,9.301c-0.229-2.971-0.35-5.971-0.35-9
			c0-0.82,0.01-1.641,0.03-2.449v-0.021c-4.96-3.029-9.45-6.76-13.271-11.607C1286.437,662.369,1286.177,666.968,1286.168,671.628
			 M1521.897,602.958c-3.189,4.021-6.09,8.262-8.69,12.699c-0.009,0-0.009,0.01-0.009,0.01c0.3,0.512,0.58,1.031,0.869,1.553
			c1.311,2.439,2.541,4.939,3.69,7.488c0.759,1.691,1.479,3.4,2.159,5.143c0.681,1.736,1.32,3.5,1.92,5.277
			c0.45,1.33,0.87,2.67,1.271,4.029c0.399,1.35,0.779,2.711,1.13,4.092c2.34,9.17,3.59,18.779,3.59,28.68
			c0,20.432-5.311,39.631-14.621,56.262c-0.738,1.328-1.509,2.639-2.299,3.928c-2.641,4.311-5.54,8.422-8.7,12.32
			c-0.239,0.301-0.489,0.602-0.739,0.891c-0.311,0.379-0.631,0.771-0.951,1.15c-0.318,0.381-0.648,0.75-0.969,1.129
			c-0.131,0.15-0.261,0.301-0.391,0.439c-0.13,0.15-0.261,0.303-0.391,0.449c-1.141,1.281-2.301,2.531-3.489,3.752
			c-0.29,0.311-0.59,0.609-0.891,0.91c-0.301,0.299-0.601,0.6-0.91,0.898c-1.3,1.279-2.619,2.529-3.979,3.74
			c-0.989,0.9-2.01,1.779-3.04,2.631c-2.79,2.34-5.689,4.539-8.689,6.59c-0.851,0.58-1.71,1.148-2.58,1.709
			c-0.489,0.32-0.989,0.641-1.489,0.951c-0.63,0.398-1.271,0.789-1.91,1.158c-0.899,0.541-1.8,1.061-2.71,1.57
			c-1.26,0.711-2.54,1.389-3.83,2.041c-1.109,0.578-2.229,1.129-3.359,1.65c-1.221,0.578-2.46,1.129-3.699,1.656
			c-4.94,2.121-10.062,3.883-15.32,5.271c-2.521,0.67-5.08,1.25-7.66,1.75c-2.6,0.49-5.22,0.898-7.88,1.211
			c-0.021,0-0.04,0-0.061,0.01c-0.649,0.07-1.29,0.141-1.939,0.199c-0.76,0.08-1.521,0.15-2.28,0.211
			c-2.99,0.248-6,0.369-9.05,0.369c-0.7,0-1.4-0.01-2.09-0.021h-0.19c-0.33-0.01-0.66-0.01-0.99-0.027c-0.17,0-0.33-0.01-0.5-0.021
			c-0.159,0-0.33-0.01-0.489-0.02c-1.67-0.049-3.33-0.141-4.99-0.291c-0.67-0.049-1.33-0.119-1.99-0.182
			c-0.27-0.027-0.53-0.059-0.791-0.09c-0.719-0.066-1.439-0.158-2.159-0.248c-0.34-0.041-0.689-0.08-1.029-0.131
			c-0.08-0.01-0.15-0.02-0.23-0.029c-0.54-0.078-1.09-0.15-1.63-0.24c-0.51-0.07-1.01-0.16-1.521-0.238
			c-0.569-0.09-1.14-0.191-1.699-0.301c-3.61-0.65-7.16-1.48-10.641-2.48c-0.439-0.121-0.88-0.25-1.319-0.381
			c-0.05-0.02-0.11-0.039-0.181-0.049c-0.609-0.189-1.229-0.379-1.84-0.58c-0.63-0.201-1.26-0.4-1.89-0.619
			c-0.63-0.211-1.271-0.43-1.891-0.662c-0.63-0.219-1.25-0.449-1.869-0.688c-0.101-0.031-0.2-0.07-0.301-0.111
			c-0.989-0.369-1.96-0.758-2.93-1.17c-0.27-0.109-0.55-0.229-0.83-0.35c-0.99-0.42-1.979-0.85-2.95-1.301
			c-0.101-0.039-0.199-0.09-0.3-0.141c-0.6-0.271-1.2-0.549-1.79-0.848c-0.59-0.271-1.17-0.563-1.76-0.861
			c-0.021-0.01-0.04-0.021-0.07-0.031c-0.569-0.289-1.14-0.578-1.7-0.889c-0.59-0.299-1.17-0.611-1.739-0.939
			c-0.58-0.311-1.15-0.631-1.721-0.961c-0.71-0.398-1.409-0.818-2.119-1.24c-1.54-0.93-3.07-1.891-4.561-2.891
			c-0.55-0.369-1.09-0.738-1.63-1.119c-0.94-0.648-1.87-1.311-2.79-1.988c-0.14-0.102-0.27-0.201-0.4-0.303
			c-0.52-0.389-1.039-0.789-1.56-1.188c-0.521-0.391-1.03-0.801-1.54-1.209c-0.721-0.582-1.439-1.16-2.15-1.762
			c-1.271-1.07-2.52-2.17-3.75-3.301c-0.539-0.488-1.069-0.99-1.6-1.488c-0.439-0.422-0.88-0.842-1.3-1.262
			c-3.729-3.67-7.21-7.6-10.41-11.75c-0.3-0.379-0.6-0.779-0.89-1.17c-3.67-4.871-6.96-10.049-9.82-15.49
			c-0.26-0.469-0.501-0.938-0.74-1.42c-0.12-0.229-0.24-0.461-0.35-0.688c-0.28-0.541-0.54-1.09-0.811-1.643
			c-0.529-1.09-1.039-2.197-1.529-3.309c-0.33-0.752-0.66-1.5-0.971-2.26c-1.069-2.531-2.029-5.102-2.909-7.723
			c-0.301-0.869,0.022,1.027-0.247,0.148c-5.801-1.73-11.024-3.059-16.015-5.967c0.851,3.969,1.062,4.27,2.271,8.088
			c0.25,0.801,0.51,1.602,0.78,2.391c4.93,14.629,12.42,28.09,21.909,39.852c1.36,1.68,2.75,3.318,4.189,4.93
			c0.43,0.48,0.86,0.961,1.29,1.43c0.87,0.941,1.74,1.871,2.63,2.781c0.9,0.91,1.8,1.811,2.72,2.699
			c0.471,0.451,0.959,0.91,1.44,1.359h0.01c1.92,1.789,3.9,3.529,5.93,5.221c0.681,0.549,1.37,1.107,2.061,1.66
			c1.38,1.09,2.78,2.148,4.2,3.189c1.42,1.039,2.87,2.039,4.329,3.021h0.011c1.41,0.93,2.83,1.84,4.27,2.729h0.011
			c0.97,0.578,1.93,1.16,2.909,1.719l0.011,0.012c0.979,0.559,1.96,1.107,2.949,1.648h0.011c0.989,0.529,2,1.061,3.01,1.57
			s2.03,1.01,3.05,1.5c1.03,0.48,2.061,0.951,3.101,1.41c0.52,0.229,1.05,0.459,1.569,0.68c0.53,0.229,1.061,0.451,1.6,0.67
			c1.301,0.521,2.601,1.031,3.91,1.521h0.011c1.97,0.729,3.97,1.408,5.979,2.039c0.67,0.211,1.34,0.42,2.021,0.619
			c1.359,0.4,2.72,0.779,4.09,1.129c2.06,0.541,4.13,1.021,6.229,1.449c0.83,0.172,1.66,0.332,2.49,0.492
			c1.66,0.309,3.33,0.578,5,0.82c5.92,0.848,11.97,1.289,18.12,1.289c6.06,0,12.02-0.432,17.85-1.25
			c1.051-0.15,2.101-0.311,3.141-0.49h0.029c4.5-0.75,8.91-1.74,13.24-2.959c3.46-0.971,6.859-2.09,10.199-3.34
			c1.67-0.621,3.32-1.281,4.95-1.98c1.069-0.461,2.141-0.93,3.2-1.41c2.109-0.959,4.199-1.988,6.25-3.07
			c0.83-0.439,1.66-0.879,2.489-1.34c1.641-0.91,3.261-1.85,4.859-2.84c0.091-0.051,0.17-0.109,0.261-0.158
			c1.149-0.711,2.279-1.432,3.399-2.182c0.358-0.23,0.71-0.471,1.069-0.711h0.011c1.069-0.719,2.13-1.459,3.17-2.211
			c0.91-0.658,1.819-1.33,2.72-2.008c0.79-0.602,1.561-1.201,2.33-1.82c0.391-0.311,0.78-0.631,1.17-0.951
			c0.271-0.209,0.54-0.43,0.801-0.648c1.029-0.852,2.04-1.709,3.04-2.609c3.54-3.109,6.899-6.42,10.069-9.92
			c0.909-0.99,1.79-1.99,2.66-3.012c3.108-3.639,6.01-7.449,8.699-11.43c0.791-1.15,1.561-2.33,2.311-3.512
			c12.601-19.959,19.91-43.639,19.91-68.998s-7.311-49.041-19.91-69C1521.897,602.939,1521.887,602.949,1521.897,602.958
			 M1498.168,575.058c-3.06,3.52-5.96,7.189-8.67,10.988c3.561,3.184,6.91,6.58,10.051,10.191c2.699-3.91,5.601-7.67,8.689-11.25
			c0-0.01,0.01-0.01,0.01-0.01c-3.17-3.5-6.529-6.811-10.069-9.932L1498.168,575.058z M1396.748,544.23
			c-1.24,0.18-2.48,0.357-3.71,0.568h-0.03c-1.229,0.209-2.45,0.432-3.67,0.682c-2.19,0.428-4.36,0.92-6.51,1.459
			c-1.431,0.371-2.851,0.75-4.261,1.16c0,0.01,0,0.01-0.01,0c-0.97,0.279-1.939,0.58-2.899,0.879c-6.721,2.148-13.19,4.82-19.391,8
			c-2.7,1.381-5.34,2.852-7.93,4.42c-27.83,16.871-48.8,44.109-57.611,76.381c0.821,2.301,1.821,4.561,3.001,6.77
			c2.141,3.99,4.73,7.189,7.76,9.861c1.2-7.85,3.181-15.441,5.881-22.691c0.199-0.527,0.39-1.059,0.6-1.578
			c0.689-1.781,1.42-3.539,2.2-5.279c0.319-0.711,0.64-1.42,0.979-2.131c0.3-0.629,0.601-1.262,0.91-1.879
			c0.08-0.162,0.16-0.332,0.24-0.49c1.729-3.471,3.64-6.84,5.7-10.092c1-1.578,2.04-3.141,3.12-4.658
			c0.539-0.791,1.108-1.563,1.68-2.33c0.57-0.771,1.149-1.541,1.75-2.291c0.03-0.049,0.06-0.09,0.1-0.139
			c0.17-0.223,0.351-0.441,0.53-0.662c0.27-0.35,0.55-0.699,0.83-1.039c0.52-0.65,1.06-1.289,1.6-1.932
			c0.69-0.818,1.4-1.619,2.12-2.42c1.11-1.229,2.24-2.439,3.41-3.621c2.71-2.768,5.55-5.389,8.53-7.867
			c0.75-0.631,1.51-1.25,2.279-1.852c0.771-0.607,1.551-1.209,2.33-1.791c0.79-0.598,1.58-1.18,2.38-1.738
			c0.841-0.602,1.69-1.189,2.55-1.76c1.421-0.961,2.871-1.881,4.341-2.77c3.17-1.922,6.439-3.691,9.8-5.301
			c1.13-0.551,2.271-1.07,3.43-1.58c0.03-0.021,0.07-0.029,0.11-0.051c1.1-0.48,2.21-0.939,3.33-1.391
			c5.47-2.189,11.15-3.961,16.99-5.26c1.08-0.25,2.17-0.48,3.26-0.691c6.97-1.35,14.17-2.059,21.53-2.059
			c21.08,0,40.83,5.811,57.779,15.93c2.75-3.818,5.641-7.52,8.681-11.09c-0.681-0.42-1.359-0.83-2.051-1.23
			c-0.858-0.527-1.729-1.027-2.6-1.498c-0.21-0.143-0.431-0.25-0.641-0.359c-0.601-0.34-1.21-0.672-1.819-0.98
			c-0.63-0.34-1.261-0.672-1.899-0.988c-0.341-0.191-0.689-0.361-1.041-0.531c-0.52-0.26-1.039-0.51-1.56-0.76
			c-0.5-0.25-1-0.48-1.5-0.709c-0.819-0.393-1.641-0.764-2.46-1.121h-0.011c-1.439-0.641-2.89-1.25-4.351-1.82
			c-2.939-1.17-5.93-2.221-8.97-3.16c-1.521-0.469-3.04-0.92-4.58-1.33c-0.771-0.209-1.54-0.41-2.319-0.6
			c-0.25-0.061-0.5-0.129-0.752-0.18c-1.099-0.271-2.198-0.529-3.309-0.762c-1.109-0.238-2.22-0.469-3.34-0.67
			c-0.74-0.139-1.49-0.281-2.24-0.398h-0.029c-1.041-0.182-2.091-0.342-3.141-0.49c-5.83-0.82-11.79-1.25-17.85-1.25
			C1408.147,543.07,1402.387,543.468,1396.748,544.23"/>
		<path id="O_2_1_" fill="url(#church-woo-nav-gold)" d="M1353.326,561.703c-1.173,1.289-28.64,32-22.669,65.646
			c3.632,20.475,18.439,32.563,35.586,46.563c6.148,5.02,12.505,10.209,18.996,16.242c10.401,9.67,17.53,19.66,22.422,28.842
			c-10.912-14.064-26.463-27.123-43.205-35.045l-2.026-1.391c-18.06-12.389-31.107-21.336-37.904-33.525
			c-7.027-12.604-7.201-28.635-0.579-53.6c0.354-1.334-0.441-2.703-1.775-3.059c-1.336-0.355-2.704,0.439-3.059,1.775
			c-12.413,46.805-0.801,62.832,25.685,82.174c-4.004-1.305-7.89-2.475-11.569-3.578c-19.252-5.768-34.458-10.322-43.023-26.311
			c-14.005-26.145-3.617-58.822,9.533-78.859c0.758-1.156,0.436-2.707-0.719-3.463c-1.153-0.758-2.704-0.438-3.462,0.719
			c-13.901,21.188-24.801,55.887-9.761,83.963c9.548,17.822,26.439,22.881,45.997,28.742c9.343,2.797,19.006,5.693,29.06,10.238
			c33.868,15.313,57.471,48.104,57.471,67.957v12.207c-4.758-13.426-14.041-30.771-32.152-47.57
			c-17.143-15.898-40.643-22.162-61.378-27.686c-9.23-2.461-17.949-4.785-25.021-7.717c-22.048-9.139-37.409-33.191-34.243-53.615
			c0.212-1.365-0.723-2.645-2.087-2.855c-1.359-0.207-2.643,0.725-2.854,2.088c-3.498,22.564,13.222,49.033,37.271,59.002
			c7.378,3.061,16.252,5.424,25.647,7.93c20.171,5.375,43.033,11.467,59.265,26.52c19.572,18.154,28.368,37.201,32.324,50.514
			c-1.617-4.055-3.644-8.533-6.163-13.166c-11.801-21.689-28.817-36.111-49.211-41.709c-9.575-2.627-19.103-4.32-28.317-5.963
			c-30.806-5.48-57.411-10.217-69.14-46.973c-0.419-1.316-1.826-2.043-3.141-1.623c-1.316,0.42-2.042,1.826-1.623,3.141
			c12.645,39.635,41.975,44.854,73.028,50.379c9.103,1.619,18.516,3.297,27.869,5.861c12.574,3.451,22.544,10.115,30.404,17.994
			c-6.622-2.137-13.974-2.953-20.217-1.184c-8.12,0.977-16.542,1.801-24.641,1.061c-0.853-0.129-2.211-0.248-3.006-0.52
			c-5.963-1.592-3.087-8.23,1.099-10.281c1.854-1.035,4.088-1.424,6.345-1.246c-4.515-1.547-10.044,0.242-12.52,4.592
			c-2.855,4.982,0.594,9.742,5.807,10.682c6.083,1.281,12.213,1.48,18.332,1.113c-3.942,5.496-2.435,13.98,3.767,17.445
			c6.942,3.881,11.625-1.176,12.224-8.045c0.079-0.793,0.109-1.59,0.165-2.377c-0.18,0.771-0.332,1.547-0.532,2.307
			c-1.242,5.293-5.114,9.975-10.553,6.047c-4.426-3.002-5.111-10.469-0.846-13.756c0.18-0.207,0.534-0.42,0.764-0.563
			c1.059-0.742,2.372-1.238,3.624-1.555c9.551-2.041,19.558,1.336,28.143,5.514c14.57,19.527,18.956,41.533,19.024,41.887
			c0.228,1.199,1.275,2.035,2.453,2.035c0.154,0,0.312-0.018,0.468-0.045c0.687-0.131,1.252-0.531,1.61-1.068
			c0.166,0.033,0.337,0.053,0.512,0.053h0.004c1.38-0.002,2.497-1.121,2.497-2.5v-36.35c0.028-1.766,0.1-32.629-28.521-63.121
			c0.131-4.41-0.33-8.824-2.169-12.885c-1.277-2.508-3.297-4.781-3.546-7.709c-0.82-4.727,3.001-13.201,8.874-11.072
			c1.729,0.818,2.622,2.855,2.655,4.783c0.033-0.977-0.117-1.975-0.521-2.885c-1.229-3.172-5.328-3.508-7.769-1.512
			c-3.224,2.514-5.001,6.678-4.733,10.834c0.123,2.586,1.29,4.973,2.583,7.156c1.604,3.207,2.019,6.877,1.912,10.496
			c-1.111-1.113-2.254-2.225-3.446-3.334c-6.608-6.143-13.028-11.383-19.238-16.453c-17.05-13.92-30.518-24.914-33.825-43.564
			c-5.537-31.201,21.178-61.111,21.448-61.41c0.927-1.023,0.85-2.605-0.172-3.533c-0.479-0.434-1.081-0.646-1.681-0.646
			C1354.497,560.882,1353.819,561.158,1353.326,561.703"/>
		<path id="O_2" fill="url(#church-woo-nav-gold)" d="M1398.269,770.832c3.448,5.771,5.106,12.668,4.358,19.289c-0.347,4.738,6.583,5.199,6.872,0.463
			c0.136-8.049-3.442-15.969-9.283-21.371c-1.916-1.715-4.057-3.164-6.387-4.055
			C1395.597,766.906,1397.074,768.804,1398.269,770.832"/>
		<path id="O_3_1_" fill="url(#church-woo-nav-gold)" d="M1413.958,506.779c-90.32,0-163.811,74.08-163.811,165.139
			c0,91.07,73.49,165.15,163.811,165.15h0.02c1.021,0,2.04-0.01,3.051-0.029h0.34c0.97-0.029,1.939-0.049,2.91-0.09
			c0.06,0,0.119-0.01,0.18-0.01c0.87-0.029,1.75-0.07,2.62-0.129c0.46-0.021,0.92-0.053,1.389-0.08
			c0.801-0.053,1.611-0.102,2.411-0.17c1.11-0.092,2.21-0.182,3.32-0.303c0.739-0.068,1.47-0.148,2.21-0.229
			c0.109-0.01,0.22-0.031,0.34-0.041c0.5-0.061,1.01-0.121,1.52-0.191c0.38-0.039,0.761-0.09,1.141-0.139
			c0.479-0.061,0.95-0.131,1.43-0.199c0.679-0.09,1.36-0.189,2.04-0.301c0.5-0.07,0.99-0.15,1.49-0.24
			c0.76-0.121,1.51-0.25,2.26-0.381c0.82-0.146,1.64-0.299,2.45-0.459c0.41-0.08,0.81-0.16,1.21-0.24
			c0.83-0.17,1.669-0.34,2.5-0.527c0.05-0.012,0.09-0.021,0.141-0.031c0.939-0.199,1.88-0.42,2.81-0.65
			c0.062-0.01,0.11-0.02,0.171-0.039c0.76-0.18,1.529-0.359,2.29-0.561c0.45-0.111,0.89-0.23,1.33-0.352
			c0.78-0.199,1.569-0.42,2.34-0.641c1.94-0.539,3.858-1.119,5.771-1.729c0.09-0.029,0.17-0.061,0.261-0.092
			c0.85-0.27,1.7-0.549,2.55-0.838c0.101-0.041,0.21-0.07,0.311-0.109c0.801-0.279,1.609-0.563,2.409-0.852
			c0.351-0.129,0.71-0.26,1.062-0.389c1.619-0.592,3.22-1.221,4.81-1.861c1.09-0.451,2.16-0.898,3.24-1.369
			c0.93-0.391,1.85-0.801,2.771-1.221c0.699-0.32,1.409-0.65,2.109-0.979c0.46-0.213,0.92-0.432,1.37-0.652
			c1.45-0.699,2.899-1.43,4.33-2.17c0.42-0.219,0.84-0.439,1.26-0.668c0.67-0.352,1.34-0.711,2-1.08
			c0.83-0.451,1.649-0.91,2.47-1.381c0.86-0.49,1.711-0.99,2.561-1.5c0.49-0.289,0.979-0.59,1.471-0.891
			c0.12-0.068,0.24-0.141,0.351-0.211c0.521-0.318,1.04-0.641,1.55-0.969c1.681-1.051,3.341-2.141,4.971-3.25
			c0.68-0.461,1.35-0.932,2.021-1.402c0.409-0.287,0.811-0.576,1.22-0.867c0.53-0.383,1.07-0.771,1.601-1.16
			c0.53-0.393,1.061-0.779,1.58-1.182c1.05-0.789,2.09-1.59,3.12-2.408c1.16-0.922,2.3-1.852,3.43-2.789
			c0.801-0.672,1.591-1.342,2.37-2.031c1.61-1.4,3.2-2.83,4.76-4.291c0.45-0.428,0.892-0.85,1.341-1.279
			c0.949-0.91,1.881-1.84,2.811-2.77c1.39-1.41,2.76-2.83,4.1-4.279c0.44-0.48,0.891-0.971,1.33-1.461
			c0.03-0.041,0.07-0.08,0.102-0.121c0.42-0.469,0.84-0.938,1.27-1.408c0.41-0.48,0.83-0.961,1.239-1.439
			c0.051-0.051,0.101-0.111,0.15-0.17v-0.012c0.38-0.438,0.761-0.879,1.13-1.318c0.779-0.932,1.551-1.871,2.319-2.82
			c0.472-0.6,0.95-1.201,1.41-1.799c0.399-0.51,0.8-1.021,1.19-1.531c0.009-0.02,0.02-0.041,0.039-0.049
			c0.391-0.521,0.78-1.041,1.17-1.57c0.24-0.318,0.479-0.641,0.721-0.971c0.238-0.33,0.47-0.65,0.699-0.98
			c0.681-0.93,1.33-1.859,1.979-2.799c0.11-0.16,0.221-0.32,0.32-0.479c1.13-1.631,2.22-3.291,3.28-4.973
			c0.27-0.42,0.539-0.85,0.799-1.277c0.351-0.563,0.701-1.131,1.041-1.701c2.05-3.4,3.99-6.889,5.8-10.449
			c0.181-0.359,0.36-0.711,0.54-1.072c0.189-0.379,0.38-0.748,0.561-1.129c0.93-1.889,1.819-3.801,2.68-5.738
			c0.28-0.641,0.561-1.271,0.83-1.91c0.271-0.641,0.541-1.281,0.811-1.92c0.271-0.66,0.54-1.32,0.801-1.98
			c0.271-0.66,0.521-1.318,0.771-1.971c1.39-3.609,2.649-7.289,3.79-11.02c0.13-0.422,0.26-0.84,0.379-1.27
			c0.181-0.604,0.361-1.211,0.531-1.83c0.188-0.691,0.38-1.381,0.568-2.061c0.711-2.633,1.352-5.289,1.932-7.973
			c0.08-0.35,0.148-0.688,0.22-1.039c0.109-0.479,0.21-0.969,0.3-1.461c0.15-0.699,0.28-1.408,0.41-2.119
			c0.14-0.709,0.27-1.42,0.39-2.131c0.142-0.838,0.28-1.68,0.41-2.52c0.101-0.588,0.19-1.18,0.271-1.779
			c0.08-0.551,0.16-1.1,0.24-1.65c0.069-0.51,0.141-1.027,0.199-1.549c0.101-0.762,0.189-1.541,0.28-2.311
			c0.069-0.611,0.13-1.219,0.189-1.83c0.05-0.449,0.089-0.91,0.13-1.369c0.061-0.641,0.12-1.291,0.17-1.941
			c0.07-0.809,0.131-1.617,0.181-2.43c0.09-1.299,0.159-2.609,0.21-3.92c0.05-0.91,0.08-1.82,0.101-2.73
			c0.02-0.549,0.029-1.107,0.04-1.658c0.01-0.932,0.021-1.869,0.021-2.813c0-0.938-0.011-1.879-0.021-2.809
			c-0.011-0.549-0.021-1.109-0.04-1.66c-0.021-0.91-0.051-1.82-0.101-2.73c-0.05-1.309-0.12-2.619-0.21-3.92
			c-0.05-0.809-0.109-1.619-0.181-2.43c-0.05-0.65-0.109-1.301-0.17-1.941c-0.041-0.459-0.08-0.908-0.13-1.367
			c-0.061-0.611-0.12-1.221-0.189-1.83c-0.091-0.771-0.181-1.539-0.28-2.313c-0.061-0.52-0.13-1.039-0.199-1.549
			c-0.08-0.549-0.16-1.1-0.24-1.65c-0.08-0.6-0.17-1.189-0.271-1.777c-0.029-0.211-0.06-0.42-0.09-0.631
			c-0.109-0.631-0.21-1.262-0.32-1.881c-0.12-0.721-0.25-1.43-0.39-2.141c-0.131-0.711-0.26-1.42-0.41-2.119
			c-0.09-0.49-0.189-0.979-0.3-1.461c-0.07-0.35-0.141-0.688-0.22-1.039c-0.58-2.68-1.221-5.342-1.932-7.961
			c-0.3-1.139-0.619-2.27-0.949-3.389c-0.051-0.17-0.101-0.34-0.15-0.51c-0.129-0.451-0.26-0.893-0.399-1.332
			c-1.131-3.709-2.39-7.359-3.77-10.949c-0.25-0.66-0.5-1.311-0.771-1.969c-0.261-0.662-0.521-1.303-0.79-1.951
			c-0.271-0.65-0.54-1.299-0.819-1.951c-0.271-0.639-0.562-1.289-0.841-1.928c-0.28-0.643-0.569-1.281-0.87-1.92
			c-0.58-1.281-1.18-2.541-1.8-3.803c-0.221-0.461-0.45-0.92-0.681-1.379c-2.229-4.439-4.649-8.77-7.261-12.971
			c-0.259-0.43-0.529-0.861-0.8-1.279c-1.061-1.689-2.149-3.34-3.279-4.98c-3.939,2.529-7.7,5.311-11.271,8.311
			c0.521,0.75,1.021,1.521,1.521,2.281c0.328,0.51,0.66,1.008,0.99,1.529c0.97,1.529,1.92,3.08,2.84,4.648
			c0.311,0.531,0.609,1.049,0.908,1.58c0.262,0.459,0.521,0.92,0.781,1.381c1.221,2.189,2.391,4.42,3.51,6.682
			c0.811,1.639,1.591,3.299,2.341,4.969c0.25,0.559,0.489,1.119,0.739,1.68c0.24,0.563,0.479,1.121,0.721,1.689
			c1.17,2.779,2.26,5.602,3.26,8.471c0.221,0.619,0.431,1.25,0.65,1.879c0.188,0.582,0.39,1.17,0.58,1.762
			c0.369,1.17,0.738,2.359,1.09,3.539c1.029,3.49,1.939,7.021,2.72,10.609c0.09,0.412,0.181,0.83,0.271,1.252
			c0.061,0.279,0.109,0.559,0.17,0.838c0.2,0.941,0.381,1.891,0.551,2.842c0.06,0.33,0.119,0.668,0.18,1.01
			c0.32,1.811,0.61,3.631,0.86,5.461c0.09,0.631,0.17,1.26,0.25,1.891c0.069,0.51,0.13,1.018,0.189,1.539
			c0.05,0.389,0.09,0.781,0.13,1.17c0.08,0.68,0.141,1.361,0.21,2.041c0.05,0.529,0.101,1.049,0.141,1.588
			c0.069,0.832,0.13,1.672,0.189,2.51c0.029,0.441,0.061,0.881,0.08,1.322c0.029,0.43,0.05,0.859,0.069,1.279
			c0.03,0.51,0.05,1.02,0.07,1.529c0.029,0.689,0.06,1.381,0.069,2.07c0.04,1.389,0.061,2.779,0.061,4.168
			c0,1.393-0.021,2.781-0.061,4.172c-0.011,0.689-0.04,1.379-0.069,2.07c-0.021,0.508-0.04,1.02-0.07,1.529
			c-0.021,0.42-0.04,0.85-0.069,1.279c-0.021,0.439-0.051,0.881-0.08,1.32c-0.051,0.82-0.12,1.639-0.189,2.459
			c-0.04,0.551-0.091,1.09-0.141,1.639c-0.069,0.684-0.13,1.361-0.21,2.041c-0.04,0.391-0.08,0.781-0.13,1.172
			c-0.061,0.52-0.12,1.027-0.189,1.541c-0.08,0.629-0.16,1.26-0.25,1.889c-0.25,1.83-0.54,3.648-0.86,5.461
			c-0.061,0.379-0.13,0.75-0.199,1.129c-0.171,0.91-0.341,1.82-0.531,2.719c-0.06,0.291-0.108,0.572-0.168,0.842
			c-0.091,0.42-0.182,0.842-0.271,1.25c-0.391,1.779-0.8,3.539-1.25,5.279c-0.149,0.58-0.3,1.16-0.46,1.74
			c-0.13,0.51-0.271,1.021-0.41,1.521c-0.199,0.697-0.399,1.381-0.6,2.068c-0.171,0.59-0.352,1.191-0.54,1.779
			c-0.561,1.822-1.15,3.621-1.78,5.41c-1,2.859-2.09,5.689-3.26,8.471c-0.479,1.131-0.96,2.25-1.46,3.371
			c-0.75,1.67-1.53,3.33-2.34,4.969c-0.57,1.15-1.15,2.291-1.75,3.42c-0.25,0.48-0.511,0.971-0.771,1.449
			c-0.319,0.611-0.648,1.211-0.989,1.811c-0.261,0.461-0.521,0.922-0.78,1.383c-1.5,2.629-3.079,5.219-4.739,7.76
			c-0.5,0.758-1,1.52-1.521,2.268c-0.75,1.111-1.511,2.211-2.301,3.303c-0.09,0.139-0.189,0.27-0.289,0.408
			c-0.351,0.49-0.711,0.971-1.07,1.461s-0.72,0.971-1.09,1.449c-0.359,0.48-0.729,0.959-1.101,1.432
			c-0.75,0.947-1.5,1.898-2.261,2.83c-0.939,1.141-1.89,2.27-2.859,3.381c0,0.01-0.01,0.01-0.01,0.01
			c-0.211,0.25-0.431,0.498-0.641,0.75c-0.67,0.748-1.33,1.49-2.01,2.229c-1.32,1.449-2.671,2.869-4.052,4.26
			c-0.459,0.471-0.929,0.932-1.39,1.391c-0.85,0.84-1.72,1.68-2.6,2.5c-0.431,0.4-0.859,0.799-1.29,1.211
			c-0.75,0.668-1.5,1.35-2.25,2.008c-0.511,0.451-1.021,0.893-1.53,1.332c-0.789,0.68-1.59,1.35-2.399,2.008
			c-1.16,0.961-2.33,1.9-3.521,2.822c-0.689,0.539-1.391,1.07-2.101,1.588c-0.261,0.201-0.521,0.393-0.779,0.582
			c-0.79,0.578-1.569,1.15-2.37,1.709c-1.17,0.83-2.359,1.65-3.561,2.441c-0.699,0.469-1.409,0.938-2.13,1.389
			c-2.841,1.82-5.75,3.551-8.72,5.18c-0.15,0.08-0.311,0.172-0.461,0.25c-0.779,0.432-1.569,0.852-2.359,1.25
			c-0.791,0.42-1.58,0.82-2.38,1.221s-1.601,0.791-2.41,1.172c-0.71,0.35-1.431,0.68-2.14,1.008c-0.101,0.041-0.2,0.09-0.291,0.131
			c-0.819,0.371-1.63,0.73-2.449,1.08c-0.92,0.4-1.84,0.791-2.771,1.17c-0.729,0.299-1.471,0.59-2.21,0.881
			c-0.71,0.279-1.42,0.549-2.13,0.811c-0.979,0.371-1.95,0.721-2.931,1.059c-0.721,0.252-1.439,0.502-2.17,0.742
			c-2.04,0.67-4.101,1.309-6.181,1.898c-0.64,0.182-1.28,0.359-1.93,0.529c-1.57,0.42-3.16,0.82-4.75,1.191
			c-0.611,0.139-1.21,0.279-1.82,0.408c-0.601,0.141-1.21,0.27-1.819,0.391c-0.271,0.059-0.54,0.111-0.811,0.16
			c-0.521,0.109-1.04,0.221-1.561,0.311c-0.899,0.182-1.801,0.34-2.71,0.488c-0.9,0.162-1.811,0.301-2.721,0.439
			c-0.77,0.121-1.55,0.23-2.319,0.332c-1.21,0.17-2.42,0.318-3.641,0.449c-0.64,0.07-1.279,0.141-1.92,0.199
			c-1.721,0.17-3.439,0.299-5.17,0.41c-0.439,0.031-0.871,0.049-1.31,0.07c-0.771,0.051-1.54,0.078-2.32,0.109
			c-0.94,0.039-1.88,0.068-2.83,0.08c-0.939,0.021-1.88,0.029-2.83,0.029h-0.02c-82.61,0-149.811-67.799-149.811-151.15
			c0-83.34,67.2-151.139,149.811-151.139h0.02c0.95,0,1.891,0.008,2.83,0.029c0.95,0.01,1.89,0.041,2.83,0.08
			c0.78,0.029,1.55,0.061,2.32,0.109c0.438,0.021,0.87,0.039,1.31,0.068c1.73,0.109,3.449,0.242,5.17,0.412
			c0.641,0.059,1.28,0.129,1.92,0.197c1.21,0.133,2.42,0.279,3.62,0.449c0.78,0.102,1.55,0.211,2.33,0.332
			c0.91,0.141,1.82,0.279,2.729,0.439c0.91,0.148,1.811,0.311,2.71,0.488c0.521,0.092,1.04,0.199,1.561,0.313
			c0.271,0.049,0.54,0.1,0.81,0.158c0.61,0.121,1.221,0.252,1.82,0.391c2.18,0.471,4.34,1,6.479,1.58
			c0.83,0.221,1.649,0.449,2.471,0.68c0.18,0.051,0.351,0.102,0.521,0.15c0.689,0.201,1.359,0.4,2.039,0.609
			c0.931,0.291,1.852,0.582,2.771,0.881c0.859,0.279,1.72,0.568,2.569,0.871c0.979,0.338,1.95,0.688,2.931,1.059
			c0.71,0.26,1.42,0.529,2.13,0.811c0.739,0.289,1.479,0.58,2.21,0.881c1.05,0.43,2.09,0.869,3.13,1.318
			c0.7,0.311,1.391,0.621,2.091,0.932c3.01,1.369,5.97,2.84,8.88,4.398c0.391,0.209,0.779,0.42,1.159,0.631
			c0.65,0.352,1.29,0.721,1.94,1.08c0.699,0.4,1.39,0.799,2.079,1.209c1.591,0.941,3.171,1.9,4.721,2.9
			c0.71,0.451,1.41,0.91,2.109,1.381c1.2,0.789,2.391,1.609,3.561,2.439c0.801,0.559,1.58,1.131,2.37,1.709
			c0.97,0.711,1.929,1.439,2.88,2.17c0.479,0.371,0.95,0.74,1.41,1.109c0.71,0.563,1.42,1.129,2.109,1.711
			c0.811,0.66,1.609,1.328,2.399,2.012c0.509,0.438,1.021,0.879,1.53,1.33c0.75,0.656,1.5,1.34,2.25,2.01
			c0.43,0.41,0.859,0.809,1.29,1.209c0.97,0.91,1.938,1.84,2.88,2.779c0.34,0.33,0.67,0.672,1,1.002
			c1.26,1.27,2.489,2.559,3.71,3.867c0.149,0.16,0.3,0.33,0.45,0.5h0.01c3.59-3,7.351-5.809,11.26-8.408v-0.012
			c-0.05-0.041-0.08-0.068-0.109-0.109c-0.439-0.488-0.891-0.98-1.33-1.459c-1.34-1.449-2.71-2.881-4.1-4.279
			c-0.931-0.932-1.86-1.861-2.811-2.771c-0.45-0.43-0.891-0.852-1.341-1.279c-1.56-1.461-3.149-2.893-4.76-4.289
			c-0.779-0.691-1.569-1.361-2.37-2.031c-1.13-0.939-2.271-1.869-3.43-2.791c-1.03-0.82-2.07-1.619-3.12-2.408
			c-0.521-0.4-1.05-0.791-1.58-1.182c-1.061-0.779-2.13-1.549-3.2-2.311c-0.55-0.367-1.09-0.738-1.641-1.119
			c-0.55-0.369-1.09-0.738-1.64-1.102c-0.69-0.459-1.38-0.908-2.071-1.357c-1.039-0.672-2.089-1.32-3.139-1.971
			c-1.061-0.648-2.13-1.279-3.2-1.898c-0.5-0.291-1-0.58-1.5-0.861c-0.21-0.119-0.42-0.24-0.63-0.361
			c-1.021-0.566-2.04-1.117-3.07-1.668c-0.5-0.27-0.989-0.529-1.479-0.779c-0.302-0.15-0.591-0.311-0.891-0.459
			c-0.92-0.473-1.851-0.941-2.79-1.393c-0.091-0.049-0.189-0.09-0.279-0.139c-0.562-0.271-1.11-0.541-1.681-0.801
			c-0.602-0.281-1.2-0.561-1.801-0.842c-0.46-0.209-0.909-0.408-1.359-0.607c-0.26-0.121-0.521-0.23-0.779-0.354
			c-0.5-0.219-1.011-0.438-1.511-0.646c-2.029-0.871-4.069-1.691-6.13-2.471c-1.061-0.41-2.13-0.801-3.2-1.182
			c-0.63-0.219-1.26-0.438-1.89-0.66c-0.641-0.219-1.271-0.43-1.91-0.639c-0.641-0.211-1.279-0.412-1.92-0.611
			c-1.28-0.408-2.569-0.791-3.859-1.158c-0.541-0.16-1.091-0.311-1.631-0.461c-1.489-0.408-2.989-0.801-4.489-1.172
			c-0.569-0.139-1.149-0.277-1.729-0.406c-1.131-0.271-2.26-0.521-3.399-0.764c-0.351-0.068-0.69-0.139-1.03-0.209
			c-0.47-0.1-0.93-0.188-1.399-0.277c-0.812-0.16-1.63-0.313-2.45-0.461c-0.75-0.143-1.5-0.262-2.26-0.383
			c-0.5-0.09-0.99-0.168-1.49-0.236c-0.68-0.111-1.361-0.211-2.04-0.301c-0.479-0.07-0.95-0.141-1.43-0.201
			c-0.38-0.049-0.761-0.1-1.141-0.141c-0.51-0.068-1.02-0.131-1.52-0.188c-0.12-0.012-0.23-0.031-0.34-0.041
			c-0.74-0.08-1.471-0.16-2.21-0.23c-1.11-0.121-2.211-0.211-3.32-0.301c-0.8-0.07-1.61-0.119-2.411-0.17
			c-0.469-0.029-0.929-0.059-1.389-0.08c-0.87-0.059-1.75-0.1-2.62-0.129c-0.061,0-0.12-0.01-0.18-0.01
			c-0.971-0.041-1.94-0.063-2.91-0.09h-0.34c-1.011-0.021-2.03-0.029-3.051-0.029H1413.958L1413.958,506.779z"/>
	</g>
	<g id="L_5_">
		<path id="L_10_" fill="url(#church-woo-nav-gold)" d="M1195.015,703.611c-2.477,19.412-15.628,33.955-40.907,45.156
			c2.446-2.742,4.844-5.529,7.243-8.313c4.659-5.369,9.307-10.695,14.236-15.84c-8.521,5.824-16.247,12.764-23.419,20.205
			C1162.427,720.789,1175.977,707.816,1195.015,703.611 M1157.86,698.49c-0.183,8.336-0.193,16.666,0.229,24.936
			c-3.3,4.729-6.332,10.133-9.127,16.264C1147.405,724.943,1150.749,711.232,1157.86,698.49 M1169.582,651.636l0.054,2.596
			l-0.153,2.59c-0.233,1.541-0.42,3.799-0.76,5.307c-1.017,6.656-3.663,12.688-6.823,18.523c-0.091-2.494-0.185-4.963-0.276-7.381
			c-0.102-4.266-0.927-8.766-3.643-12.18c-2.927-4.225-9.514-5.996-13.452-2.213c4.084-2.908,9.677-0.879,11.964,3.264
			c1.445,2.252,2.016,4.953,2.218,7.596c-0.132,5.789-0.34,11.611-0.532,17.441c-2.848,4.83-5.769,9.639-8.104,14.678
			c-6.426,13.93-7.918,30.008-4.102,44.898c-0.928,2.355-1.832,4.793-2.707,7.334l-1.719,4.996l4.952-1.838
			c5.711-2.119,10.937-4.373,15.706-6.768c0.003,0,0.007,0,0.012-0.002c8.15-2.063,16.488-4.324,24.868-4.779
			c2.564-0.141,5.202,0.42,7.897,1.223c5.465,1.68,11.053,3.836,16.768,4.859c5.798,1.109,11.751,1.201,17.486,0.338
			c-5.811-0.014-11.529-0.822-16.987-2.412c-8.439-2.221-16.074-7.814-25.195-8.219c-3.949,0.008-7.835,0.453-11.668,1.18
			c15.742-11.104,23.81-24.83,24.933-41.979l0.206-3.143l-3.107,0.514c-14.158,2.334-25.594,8.684-35.002,19.744
			c0.115-4.25,0.138-8.502,0.11-12.752c-0.037-4.488-0.141-9.152-0.276-13.844c5.332-8.688,10.37-17.799,11.901-28.129
			c0.367-1.654,0.51-4.098,0.729-5.803c1.195-14.01-6.471-26.586-13.771-37.607c-4.028-6.258-8.216-12.428-10.23-19.381
			c-2.21-7.084-0.738-14.713,3.18-20.998C1134.551,603.732,1168.871,626.701,1169.582,651.636"/>
		<path id="L_9_" fill="url(#church-woo-nav-gold)" d="M1087.86,681.644c3.632,3.66,6.994,6.836,10.152,9.814
			c11.051,10.436,18.435,17.404,24.321,33.691v53.088h113.88v37.768h-148.35L1087.86,681.644z M1073.864,830.007h176.35v-65.77
			h-113.881v-41.477l-0.389-1.117c-7.076-20.309-16.45-29.156-28.321-40.363c-6.2-5.854-13.228-12.488-21.438-22.113l-12.324-14.447
			L1073.864,830.007z"/>
		<path id="L_8_" fill="url(#church-woo-nav-gold)" d="M1114.332,642.373c-11.984-11.563-22.368-21.584-26.468-35.402v-82.611h34.47v125.842
			C1119.658,647.513,1116.977,644.927,1114.332,642.373 M1073.864,510.357v98.533l0.25,0.908
			c4.932,17.979,17.349,29.961,30.496,42.648c6.505,6.277,13.229,12.768,19.279,20.25l12.443,15.391v-177.73H1073.864z"/>
		<path id="L_7_" fill="url(#church-woo-nav-gold)" d="M1102.838,517.359v92.84c1.29,2.09,2.931,4.469,5.001,7.09v-99.93H1102.838L1102.838,517.359z"
			/>
		<path id="L_6_" fill="url(#church-woo-nav-gold)" d="M1102.838,798.919h140.38v-5h-135.379v-76.148c-1.282-1.455-2.87-3.086-5.001-5.094V798.919z"/>
		<path id="L_._5_" fill="url(#church-woo-nav-gold)" d="M1150.223,637.261c0,1.662,1.354,3.02,3.019,3.02s3.016-1.355,3.016-3.02
			c0-1.666-1.352-3.02-3.016-3.02S1150.223,635.595,1150.223,637.261"/>
		<path id="L_._4_" fill="url(#church-woo-nav-gold)" d="M1181.223,689.496c0,1.664,1.354,3.02,3.018,3.02s3.018-1.355,3.018-3.02
			c0-1.666-1.354-3.018-3.018-3.018S1181.223,687.832,1181.223,689.496"/>
		<path id="L_._3_" fill="url(#church-woo-nav-gold)" d="M1202.98,730.433c-0.402,0.695-0.51,1.51-0.301,2.287c0.208,0.779,0.707,1.432,1.406,1.834
			c0.459,0.266,0.979,0.404,1.505,0.404c1.076,0,2.079-0.58,2.616-1.51c0.833-1.441,0.337-3.289-1.104-4.123
			c-0.459-0.264-0.979-0.404-1.505-0.404C1204.521,728.921,1203.517,729.501,1202.98,730.433"/>
	</g>
	<g id="B_6_">
		<path id="B_4_" fill="url(#church-woo-nav-gold)" d="M872.904,676.951h50.528c26.89,0,48.766,21.877,48.766,48.766v9
			c0,25.623-20.848,46.471-46.471,46.471h-52.823V676.951z M858.904,662.953v132.234h66.823c33.344,0,60.471-27.127,60.471-60.473
			v-9c0-34.605-28.156-62.764-62.766-62.764h-64.528V662.953z"/>
		<path id="B_3_" fill="url(#church-woo-nav-gold)" d="M901.314,771.363c14.036-5.834,28.705-8.639,43.591-11.043c2.153-0.354,4.324-0.658,6.528-1.193
			c-1.084-0.289-2.176-0.51-3.273-0.723c-3.177-0.604-6.585-0.908-10.088-0.908C924.674,757.496,909.887,761.962,901.314,771.363
			 M932.894,745.541c-2.7,2.896,1.444,6.955,4.283,4.203c2.636-3.479,7.815-4.965,12.099-5.805l2.157-0.313
			c-2.573-0.549-5.327-0.949-8.056-0.949C939.669,742.679,936.005,743.419,932.894,745.541 M901.838,750.517
			c5.347-19.836,17.995-34.082,34.197-38.787c0.693,17.996-9.802,29.953-34.36,39.35
			C901.732,750.89,901.787,750.703,901.838,750.517 M938.158,705.031c-20.059,4.094-35.803,20.514-42.113,43.924
			c-1.646,6.104-12.088,22.158-12.088,22.158l11.261-8.443c4.296-3.221,8.924-5.992,13.86-8.104
			c18.088-7.746,35.586-20.488,32.662-46.926l-0.362-3.268L938.158,705.031z M901.746,710.841c-1.06,4.676,6.012,5.426,5.967,0.633
			c-0.483-6.977-2.435-15.191-8.867-18.936C903.448,697.373,903.116,704.796,901.746,710.841 M884.433,757.48
			c10.399-19.963,14.108-50.43-3.529-67.41C892.128,711.078,887.774,735,884.433,757.48"/>
		<path id="B_2_" fill="url(#church-woo-nav-gold)" d="M895.504,599.933c-0.174,4.027-1.246,7.918-3.203,11.322c0.65-3.916,0.409-11.982-4.266-13.061
			c-1.828-0.348-3.316,1.434-3.379,3.098c-0.063,1.326,0.469,2.512,1.226,3.383c-0.358-1.104-0.45-2.24-0.124-3.18
			c0.322-0.916,1.133-1.584,1.671-1.396c0.686,0.014,1.358,1.453,1.6,2.299c1.174,4.895-0.224,10.143-1.528,14.906l-2.231,5.941
			l4.646-4.295c9.229-8.127,9.63-20.488,7.726-31.861c1.442,2.406,2.671,4.916,3.552,7.541c5.731,16.232-5.143,30.289-16.339,40.953
			l2.057,2.186c3.934-3.797,7.709-7.803,10.959-12.283c3.166-4.455,5.952-9.713,7.163-15.061
			c3.236-14.73-4.639-25.838-13.375-36.621C893.592,582.232,896.059,591.363,895.504,599.933"/>
		<path id="B_1_" fill="url(#church-woo-nav-gold)" d="M872.904,560.599h44.764c19.365,0,35.119,15.754,35.119,35.115
			c0,19.365-15.754,35.117-35.119,35.117h-44.764V560.599z M858.904,546.599v98.234h58.764c27.084,0,49.118-22.035,49.118-49.119
			s-22.034-49.115-49.118-49.115H858.904L858.904,546.599z"/>
		<rect id="B" x="838.463" y="519.009" fill="url(#church-woo-nav-gold)" width="5" height="305.646"/>
		<path id="B_5_" fill="url(#church-woo-nav-gold)" d="M821.611,526.009h67.939c35.83,0,61.098,4.711,77.252,14.4
			c15.427,9.254,23.392,23.488,25.064,44.795c2.888,36.803-27.986,58.289-29.288,59.178l-12.588,8.486l14.629,4.064
			c0.511,0.141,51.123,14.938,50.05,78.9c-0.873,52-38.115,81.822-102.177,81.822H821.61L821.611,526.009L821.611,526.009z
			 M807.61,512.009v319.646h104.883c34.028,0,62.584-8.152,82.578-23.578c21.467-16.559,33.084-41.461,33.597-72.01
			c0.652-38.836-15.648-61.936-29.438-74.473c-6.915-6.287-13.879-10.6-19.438-13.438c11.316-10.898,28.48-32.838,26.032-64.049
			c-2.03-25.859-12.438-44.08-31.819-55.707c-18.646-11.186-45.483-16.395-84.454-16.395h-81.94V512.009z"/>
	</g>
</g>
<g id="SONIC">
	<g id="C_2_">
		<path id="C_5_" fill="url(#church-woo-nav-gold)" d="M421.358,711.785c12.127,7.733,23.076,10.261,32.735,12.492
			c8.738,2.018,16.488,3.807,22.824,9.052c-2.59-4.757-8.631-11.846-22.27-14.835c-25.208-5.527-37.385-13.474-40.714-26.569
			l-0.602-2.384l2.185,1.143c0.044,0.022,4.67,2.367,24.759,6.362c19.865,3.952,31.547,15.519,42.423,32.99
			c-3.187-10.145-10.86-27.87-26.828-34.543c-9.173-3.834-17.405-5.576-24.67-7.114c-10.476-2.217-18.944-4.01-25.209-10.961
			C405.682,684.199,406.386,702.24,421.358,711.785 M560.624,688.379c-7.266,1.537-15.498,3.279-24.671,7.113
			c-15.966,6.673-23.641,24.397-26.827,34.542c10.877-17.471,22.557-29.037,42.425-32.989c20.088-3.995,24.713-6.34,24.75-6.36
			l2.207-1.191l-0.617,2.431c-3.33,13.096-15.505,21.042-40.713,26.569c-13.639,2.989-19.679,10.078-22.27,14.834
			c6.336-5.244,14.086-7.033,22.823-9.051c9.66-2.231,20.607-4.759,32.734-12.492c14.974-9.545,15.677-27.587,15.366-34.367
			C579.569,684.37,571.099,686.162,560.624,688.379 M553.786,673.171c5.129-3.598,8.97-8.625,10.953-14.51
			c1.923-5.716,1.938-11.844,0.15-17.632C566.345,653.605,562.778,663.926,553.786,673.171 M426.485,658.413
			c1.484,5.21,4.172,9.729,7.803,13.237c-6.493-9.302-8.938-20.07-7.512-33.035C424.802,644.991,424.655,651.979,426.485,658.413
			 M534.349,610.792c0.62,5.039,0.568,9.93,0.255,14.811c0.758-2.418,1.304-4.943,1.638-7.563
			c1.77-11.758-2.962-26.116-13.743-33.335C529.05,592.029,533.194,601.081,534.349,610.792 M455.793,618.063
			c0.333,2.608,0.881,5.128,1.636,7.541c-0.314-4.879-0.365-9.769,0.254-14.807c1.157-9.717,5.303-18.771,11.854-26.096
			C458.753,591.918,454.02,606.284,455.793,618.063 M477.608,627.966c-0.158-9.382,6.504-19.944,11.857-28.432
			c2.727-4.32,5.078-8.051,5.771-10.478l1.059-3.701l1.058,3.701c0.692,2.427,3.046,6.157,5.771,10.477
			c5.354,8.486,12.018,19.051,11.858,28.433c-0.237,13.982-9.722,32.195-10.127,32.963l-2.006-0.887
			c0.03-0.085,3.114-8.757,3.345-24.346c0.189-12.906-8.06-22.713-10.718-25.53c-2.32,2.898-9.271,12.674-9.083,25.53
			c0.229,15.589,3.314,24.261,3.347,24.346l-2.008,0.887C487.331,660.162,477.845,641.949,477.608,627.966 M478.039,607.333
			c-8.104,15.74-6.718,29.592,5.295,52.935c12.471,24.234,11.122,43.517,11.06,44.324l-0.258,3.285l-1.769-2.781
			c-0.147-0.233-3.712-5.947-9.376-23.996c-4.967-15.828-13.977-33.814-42.965-47.573c-0.535,5.178-1.479,22.94,8.908,34.388
			c4.123,4.544,9.705,8.831,15.615,13.37c12.332,9.471,25.084,19.263,27.885,33.51c4.037,20.538,2.854,49.47,2.844,49.76
			l-2.099,0.413c-0.068-0.151-7.081-15.092-21.897-23.534c-5.07-2.888-10.329-4.416-15.213-4.416
			c-7.563,0-12.722,3.631-13.146,9.249c-0.229,3.006,0.651,5.674,2.545,7.715c2.119,2.286,5.46,3.706,8.721,3.706
			c1.079,0,2.104-0.166,2.967-0.479c1.892-0.688,2.832-1.901,2.58-3.329c-0.21-1.188-1.358-2.451-3.073-2.451
			c-0.136,0-0.273,0.008-0.416,0.024c-0.995,0.114-2.259,0.476-2.63,1.542c-0.286,0.82,0.047,1.646,0.224,1.822l2.578,2.58
			l-3.576-0.725c-0.206-0.042-5.095-1.11-6.393-8.112c-0.391-2.108,0.172-4.203,1.581-5.897c1.945-2.337,5.271-3.68,9.122-3.68
			c3.238,0,6.779,0.952,10.24,2.755c8.771,4.563,16.767,14.536,21.941,27.362c1.642,4.07,2.474,8.359,2.474,12.747v1.824h2.508
			v-0.484l6.471,0.411v-2.939c0-4.354,0.772-8.491,2.299-12.295c3.816-9.512,12.136-21.434,22.115-26.626
			c3.461-1.803,7.002-2.755,10.241-2.755c3.852,0,7.178,1.342,9.121,3.68c1.409,1.693,1.972,3.789,1.58,5.897
			c-1.297,7.002-6.187,8.07-6.394,8.112l-3.578,0.726l2.582-2.581c0.176-0.176,0.511-1.002,0.225-1.822
			c-0.372-1.066-1.637-1.428-2.632-1.542c-0.142-0.017-0.279-0.024-0.415-0.024c-1.717,0-2.863,1.263-3.073,2.451
			c-0.251,1.428,0.688,2.641,2.579,3.329c0.861,0.313,1.888,0.479,2.969,0.479c3.26,0,6.601-1.42,8.719-3.705
			c1.894-2.041,2.773-4.709,2.546-7.716c-0.425-5.618-5.584-9.249-13.146-9.249c-4.882,0-10.143,1.528-15.211,4.416
			c-14.802,8.434-21.293,23.27-21.356,23.418l-2.108-0.365c-0.02-0.289-1.729-29.144,2.312-49.691
			c2.801-14.247,15.553-24.039,27.885-33.51c5.91-4.539,11.492-8.826,15.615-13.37c10.375-11.433,9.44-29.206,8.908-34.388
			c-28.989,13.759-37.998,31.745-42.964,47.573c-5.664,18.049-9.229,23.763-9.377,23.997l-1.769,2.779l-0.259-3.284
			c-0.063-0.809-1.409-20.09,11.062-44.324c12.012-23.343,13.396-37.194,5.294-52.935c-6.745-13.103-15.575-23.594-18.257-26.648
			C493.614,583.74,484.785,594.231,478.039,607.333"/>
		<path id="C_1_" fill="url(#church-woo-nav-gold)" d="M350.939,671.831c0-81.821,66.57-148.381,148.391-148.381c32.319,0,63.83,10.65,89.541,30.131
			l-15.67,16.939c-21.341-15.56-47.32-24.07-73.871-24.07c-69.14,0-125.39,56.25-125.39,125.381c0,69.13,56.25,125.38,125.39,125.38
			c27.071,0,53.471-8.811,75.03-24.92l15.859,16.75c-25.939,20.149-57.939,31.17-90.891,31.17
			C417.51,820.21,350.939,753.65,350.939,671.831 M336.939,671.831c0,89.539,72.851,162.38,162.391,162.38
			c38.75,0,76.301-13.93,105.71-39.21l5.569-4.79l-34.989-36.96l-5.051,4.2c-19.93,16.608-45.229,25.76-71.239,25.76
			c-61.421,0-111.391-49.96-111.391-111.38s49.97-111.38,111.391-111.38c25.541,0,50.489,8.858,70.239,24.949l5.09,4.149
			l34.591-37.379l-5.63-4.72C574.43,522.94,537.39,509.45,499.329,509.45C409.79,509.45,336.939,582.291,336.939,671.831"/>
	</g>
	<g id="I_2_">
		<path id="I_9_" fill="url(#church-woo-nav-gold)" d="M262.979,523.887v103.57c1.939-2.322,3.78-4.688,5.499-7.177v-96.394H262.979L262.979,523.887z"
			/>
		<path id="I_4_" fill="url(#church-woo-nav-gold)" d="M262.979,717.672v99.686h5.499V710.507C266.479,712.979,264.639,715.365,262.979,717.672"/>
		<path id="I_3_" fill="url(#church-woo-nav-gold)" d="M247.679,727.248c3.569-10.221,13.3-20.62,24.521-32.601c3.71-3.96,7.649-8.18,11.589-12.64
			v133.73H247.68L247.679,727.248L247.679,727.248z M285.12,658.137c-7.12,9.83-15.271,18.53-23.141,26.949
			c-12.221,13.04-23.75,25.37-27.989,38.95l-0.311,1.02v104.682h64.109v-189.08L285.12,658.137z"/>
		<path id="I_1_" fill="url(#church-woo-nav-gold)" d="M247.679,526.657h36.108v84.471c-6.06,13.43-14.648,21.8-24.549,31.44
			c-3.65,3.56-7.551,7.35-11.561,11.648L247.679,526.657L247.679,526.657z M233.679,512.657v182.261l12.64-17.24
			c7.66-10.45,15.301-17.891,22.69-25.081c10.818-10.53,21.029-20.479,28.22-37.25l0.561-1.318V512.657H233.679z"/>
	</g>
	<g id="N_13_">
		<path id="N_27_" fill="url(#church-woo-nav-gold)" d="M76.806,761.261c11.629,5.385,23.644,9.486,35.045,15.332
			c-7.427-5.45-16.088-9.982-24.788-14.45c-2.49-5.787-5.337-11.394-8.564-16.785c1.634,4.751,2.997,9.603,4.106,14.495
			c-7.118-3.665-14.128-7.381-20.362-11.617c-29.146-18.788-41.394-44.224-47.45-77.524
			C15.935,714.343,37.155,743.814,76.806,761.261"/>
		<path id="N_12_" fill="url(#church-woo-nav-gold)" d="M73.74,780.811c7.495,5.226,16.441,7.72,25.013,10.404c1.334,0.371,2.624,0.743,3.889,1.118
			c3.463,3.603,6.887,7.84,4.143,11.747c-2.303,2.994-7.049,1.883-9.933-0.134c0.39,1.574,1.498,2.986,2.891,4.007
			c3.013,2.311,7.952,2.349,10.679-0.759c3.686-4.346,2.75-8.877-0.162-12.402c12.834,4.517,22.491,10.19,34.184,20.859
			c-11.17-16.156-25.63-24.029-44.234-29.218c-8.311-2.591-16.799-4.663-24.393-8.952c-7.557-4.313-14.164-10.187-18.903-17.595
			C59.836,768.473,66.303,775.712,73.74,780.811"/>
		<path id="N_11_" fill="url(#church-woo-nav-gold)" d="M33.675,709.711c11.375,2.012,20.131,7.733,24.444,18.55c1.474,3.342,2.562,6.961,3.791,10.743
			c0.85-3.888,0.825-7.944-0.044-11.931c-2.106-10.68-11.33-18.404-21.662-18.405C38.056,708.668,35.864,709.001,33.675,709.711"/>
		<path id="N_10_" fill="url(#church-woo-nav-gold)" d="M32.677,582.283c8.417,5.05,15.726,11.092,18.441,20.849c1.484,4.633,2.36,9.483,3.202,14.286
			c-0.453-7.353-0.997-14.993-4.162-21.823c-2.774-6.106-8.013-10.707-13.327-14.601c6.188,2.564,12.229,5.442,18.037,8.727
			c34.97,19.51,53.351,51.07,58.275,90.403c-0.852-57.849-37.468-94.303-91.413-109.025c0,0-15.951-4.534-15.951-4.535
			C13.481,571.063,25.228,577.636,32.677,582.283"/>
		<path id="N_9_" fill="url(#church-woo-nav-gold)" d="M73.737,631.329c5.155,6.522,13.207,10.066,21.202,11.474c0.581,2.29,1.253,4.504,2.021,6.753
			c2.891,8.117,6.611,16.476,13.127,22.332c-5.737-9.689-8.431-20.834-10.798-31.713l-0.315-1.604l-1.675-0.309
			c-17.286-2.883-27.952-13.379-28.388-31.313C66.596,615.127,68.284,624.568,73.737,631.329"/>
		<path id="N_8_" fill="url(#church-woo-nav-gold)" d="M26.596,561.956c14.437,5.374,30.26,8.725,41.271,19.938c3.18,3.065,5.977,6.578,8.807,10.111
			c-1.896-4.111-4.185-8.062-6.982-11.725c-9.851-13.185-26.659-17.835-41.479-22.997c-14.656-4.985-28.526-12.543-40.011-23.044
			C-2.666,547.46,11.681,556.5,26.596,561.956"/>
		<path id="N_._14_" fill="url(#church-woo-nav-gold)" d="M36.459,754c0,1.761,1.42,3.181,3.171,3.181s3.182-1.42,3.182-3.181
			c0-1.75-1.431-3.17-3.182-3.17S36.459,752.25,36.459,754"/>
		<path id="N_._6_" fill="url(#church-woo-nav-gold)" d="M21.733,542.966c0,1.759,1.42,3.179,3.172,3.179c1.751,0,3.18-1.42,3.18-3.179
			c0-1.752-1.43-3.172-3.18-3.172C23.153,539.794,21.733,541.214,21.733,542.966"/>
		<path id="N_._5_" fill="url(#church-woo-nav-gold)" d="M88.507,594.5c0,1.354,1.094,2.449,2.442,2.449c1.348,0,2.45-1.095,2.45-2.449
			c0-1.351-1.103-2.444-2.45-2.444C89.6,592.056,88.507,593.15,88.507,594.5"/>
		<path id="N_._4_" fill="url(#church-woo-nav-gold)" d="M96.885,610.382c0,1.163,0.938,2.1,2.095,2.1s2.101-0.937,2.101-2.1
			c0-1.157-0.943-2.094-2.101-2.094C97.823,608.289,96.885,609.225,96.885,610.382"/>
		<path id="N_._3_" fill="url(#church-woo-nav-gold)" d="M105.035,622.988c0,0.899,0.727,1.627,1.622,1.627s1.627-0.728,1.627-1.627
			c0-0.896-0.73-1.622-1.627-1.622S105.035,622.092,105.035,622.988"/>
		<path id="N_._2_" fill="url(#church-woo-nav-gold)" d="M27.135,738.835c0,1.168,0.941,2.111,2.104,2.111c1.162,0,2.11-0.943,2.11-2.111
			c0-1.163-0.948-2.106-2.11-2.106S27.135,737.672,27.135,738.835"/>
		<path id="N_._1_" fill="url(#church-woo-nav-gold)" d="M18.755,724.333c0,0.774,0.626,1.4,1.396,1.4c0.771,0,1.402-0.626,1.402-1.4
			c0-0.773-0.631-1.398-1.402-1.398C19.381,722.935,18.755,723.56,18.755,724.333"/>
		<path id="N_7_" fill="url(#church-woo-nav-gold)" d="M134.26,526.657h37.06v271.909L-4.74,618.607v196.159h-37.07V546.448l176.07,177.698V526.657z
			 M-55.811,828.767H9.26v-175.83l176.06,179.971V512.657h-65.061v177.47L-55.811,512.427V828.767z"/>
		<path id="N_6_" fill="url(#church-woo-nav-gold)" d="M-26.002,670.516c0.77-0.329,1.61-0.509,2.489-0.509c0.89,0,1.74,0.18,2.51,0.509v-64.18
			l-4.999-4.999V670.516z"/>
		<path id="N_5_" fill="url(#church-woo-nav-gold)" d="M-23.513,682.846c-0.879,0-1.721-0.18-2.489-0.509v139.43c0,1.379,1.119,2.5,2.5,2.5
			c1.38,0,2.499-1.121,2.499-2.5v-139.43C-21.773,682.667-22.623,682.846-23.513,682.846"/>
		<path id="N_4_" fill="url(#church-woo-nav-gold)" d="M-27.765,676.418c0,2.362,1.907,4.268,4.257,4.268s4.269-1.905,4.269-4.268
			c0-2.349-1.919-4.256-4.269-4.256S-27.765,674.07-27.765,676.418"/>
		<path id="N_3_" fill="url(#church-woo-nav-gold)" d="M150.177,519.657v150.859c0.771-0.329,1.609-0.509,2.49-0.509c0.891,0,1.738,0.18,2.511,0.509
			V519.657c0-1.389-1.12-2.5-2.501-2.5C151.299,517.157,150.177,518.268,150.177,519.657"/>
		<path id="N_2_" fill="url(#church-woo-nav-gold)" d="M152.668,682.846c-0.881,0-1.72-0.18-2.49-0.509v66.26l5.001,4.391v-70.65
			C154.407,682.667,153.557,682.846,152.668,682.846"/>
		<path id="N_1_" fill="url(#church-woo-nav-gold)" d="M148.413,676.418c0,2.362,1.906,4.268,4.256,4.268c2.351,0,4.269-1.905,4.269-4.268
			c0-2.349-1.918-4.256-4.269-4.256C150.319,672.163,148.413,674.07,148.413,676.418"/>
	</g>
	<g id="O_1_10_">
		<path id="O_1_23_" fill="url(#church-woo-nav-gold)" d="M-225.873,587.082c-1.236,0.615-1.739,2.117-1.123,3.352
			c6.37,12.779,5.324,25.163-3.296,38.974c-0.73,1.171-0.373,2.713,0.798,3.443c0.412,0.258,0.869,0.38,1.321,0.38
			c0.834,0,1.649-0.418,2.124-1.177c2.356-3.775,4.196-7.463,5.536-11.09c3.081-3.237,10.669-9.958,17.446-11.695
			c-0.087,1.798,0.738,3.011,1.129,3.478c1.548,1.852,4.311,2.347,6.565,1.174c1.879-0.975,2.729-2.839,2.22-4.863
			c-0.653-2.602-3.588-5.124-5.983-5.179c-6.767-0.408-14.074,4.224-19.108,8.281c1.158-8.048-0.271-15.917-4.277-23.955
			c-0.437-0.877-1.32-1.386-2.238-1.386C-225.135,586.818-225.515,586.903-225.873,587.082"/>
		<path id="O_1_11_" fill="url(#church-woo-nav-gold)" d="M-170.318,644.513c0.101,7.022-2.608,13.912-6.344,19.805
			c-1.499,2.427-3.456,4.852-5.347,6.99c-1,1.087-2.065,2.117-3.104,3.187c1.171-0.908,2.38-1.787,3.536-2.734
			c8.194-6.897,14.981-16.404,16.259-27.284c0.086-1.819-1.206-2.722-2.499-2.722C-169.126,641.754-170.438,642.68-170.318,644.513"
			/>
		<path id="O_1_9_" fill="url(#church-woo-nav-gold)" d="M-296.615,588.204c-4.005,8.034-5.434,15.899-4.278,23.944
			c-5.028-4.058-12.331-8.686-19.106-8.271c-2.396,0.056-5.329,2.578-5.984,5.179c-0.51,2.024,0.341,3.889,2.219,4.863
			c2.259,1.173,5.019,0.677,6.566-1.174c0.391-0.467,1.216-1.68,1.128-3.478c6.78,1.738,14.367,8.46,17.448,11.695
			c1.34,3.628,3.18,7.314,5.536,11.09c0.474,0.759,1.289,1.177,2.124,1.177c0.452,0,0.909-0.121,1.32-0.38
			c1.172-0.73,1.528-2.272,0.798-3.443c-8.619-13.811-9.666-26.194-3.296-38.974c0.616-1.234,0.114-2.736-1.122-3.352
			c-0.358-0.179-0.738-0.264-1.113-0.264C-295.293,586.818-296.177,587.326-296.615,588.204"/>
		<path id="O_1_8_" fill="url(#church-woo-nav-gold)" d="M-353.823,644.393c0.612,6.338,3.495,12.288,7.022,17.459
			c2.618,3.667,5.786,7.015,9.241,9.908c1.156,0.947,2.364,1.826,3.535,2.734c-1.037-1.069-2.102-2.1-3.103-3.187
			c-1.369-1.534-2.949-3.484-4.142-5.16c-4.36-6.33-7.653-13.862-7.55-21.635c0.121-1.83-1.19-2.76-2.502-2.76
			C-352.589,641.753-353.857,642.625-353.823,644.393"/>
		<path id="O_1_7_" fill="url(#church-woo-nav-gold)" d="M-406.613,687.506c-1.64-2.569-3.05-5.369-4.181-8.438l1.19-20.301
			c0.65,1.771,1.39,3.62,2.229,5.511c3.921,8.77,10.091,18.288,19.571,24.109c1.119,0.69,2.299,1.351,3.51,1.98
			c4.639,2.43,9.88,4.46,15.47,6.37c3.71,1.279,7.57,2.5,11.5,3.738c21.409,6.761,47.021,14.851,66.499,37.521
			c-1.938-1.399-3.999-2.739-6.169-4.009c-12.88-7.561-29.771-11.461-46.1-15.241c-6.83-1.579-13.722-3.179-20.382-5.05
			c-5.868-1.649-11.549-3.511-16.858-5.779c-0.161-0.062-0.321-0.13-0.48-0.2l-3.21-1.53c-0.01,0.03-0.02,0.05-0.02,0.07
			C-393.333,701.807-401.242,695.917-406.613,687.506 M-161.813,700.476c4.81-1.52,9.511-2.999,13.96-4.59
			c5.699-2.039,10.98-4.24,15.551-6.93c0.328-0.18,0.649-0.37,0.97-0.569c11.3-6.939,17.898-19.13,21.589-29.051l0.211-0.569
			l1.19,20.301c-0.421,1.14-0.882,2.238-1.37,3.309c-5.341,11.561-14.86,19.021-26.391,24.341c-5.331,2.489-11.101,4.51-17.08,6.259
			c-7.421,2.201-15.171,3.991-22.859,5.771c-16.331,3.78-33.221,7.681-46.101,15.241c-2.171,1.27-4.22,2.609-6.17,4.009
			C-208.823,715.327-183.222,707.237-161.813,700.476 M-140.412,573.797c-1.201,0.679-1.61,2.209-0.931,3.41
			c0.909,1.599,1.789,3.33,2.609,5.17c7.531,16.78,11.091,42.759,4.86,62.08c-2.15,6.699-5.49,12.6-10.239,17.03
			c-0.42,0.399-0.85,0.779-1.271,1.149c-9.319,8.229-18.641,11.299-29.351,14.84c-13.97,4.619-29.8,9.841-50.249,27.54
			c-21.859,18.92-30.89,47.379-34.58,69.29c-3.7-21.911-12.73-50.37-34.591-69.29c-20.45-17.699-36.28-22.921-50.25-27.54
			c-9.87-3.26-18.559-6.13-27.16-12.99c-1.148-0.93-2.309-1.919-3.459-2.999c-3.77-3.512-6.649-7.95-8.75-12.98
			c-7.241-17.28-5.37-41.52,0.71-59.34c1.52-4.46,3.299-8.521,5.27-11.96c0.681-1.201,0.27-2.731-0.93-3.41
			c-1.2-0.691-2.73-0.27-3.409,0.929c-4.541,7.95-8.131,18.671-9.98,30.17c-2.931,18.121-1.57,38.141,7.129,52.182
			c1.831,2.988,4.011,5.699,6.551,8.069c2.23,2.07,4.46,3.87,6.689,5.439c8.38,5.891,16.881,8.701,25.771,11.641
			c13.53,4.47,28.859,9.53,48.55,26.57c18.189,15.75,27.051,39.08,31.34,58.919c-1.919-3.999-4.27-8.1-7.169-12.139l0.109-0.05
			c-20.681-40.24-55.051-51.092-82.671-59.812c-4.909-1.55-9.688-3.06-14.169-4.68c-5.641-2.02-10.79-4.209-15.091-6.851
			c-0.039-0.02-0.07-0.039-0.109-0.059c-12-7.36-18.24-21.93-21.201-31.65c-1.709-5.569-2.34-9.54-2.35-9.649l-3.568-23.7
			l-3.541,60.67l0.17,0.48c2.461,6.889,6.07,12.559,10.529,17.279c7.142,7.561,16.49,12.71,26.881,16.62
			c5.551,2.101,11.4,3.839,17.381,5.41c5.5,1.45,11.099,2.74,16.669,4.029c16.69,3.859,32.471,7.511,44.69,14.681
			c12.431,7.3,20.739,16.889,26.3,26.69c-9.1-11.011-21.94-24.07-31.699-22.831c-3.901,0.411-7.871,3.229-8.57,7.341
			c-0.87,4.56,1.229,9.95,5.899,11.639c3.6,1.231,8.029-0.419,9.44-4.099c0.69-1.271,0.37-2.97-1.221-3.32
			c-1.08-0.23-2.14,0.46-2.37,1.54c-0.42,2.109-2.819,3.11-4.84,2.561c-1.62-0.451-2.78-1.821-3.53-3.48
			c-3.06-6.881,3.841-11.8,10.28-9.7c9.54,3.2,19.751,13.3,27.79,22.49c7.811,14.83,12.48,43.319,12.48,43.319
			s5.03-29.3,12.289-43.11c8.071-9.25,18.36-19.479,27.97-22.699c6.441-2.1,13.341,2.819,10.28,9.7
			c-0.749,1.659-1.91,3.029-3.53,3.48c-2.019,0.55-4.419-0.451-4.84-2.561c-0.229-1.08-1.289-1.771-2.369-1.54
			c-1.591,0.36-1.909,2.05-1.221,3.32c1.41,3.68,5.84,5.33,9.44,4.099c4.67-1.688,6.771-7.079,5.9-11.639
			c-0.69-4.111-4.67-6.93-8.569-7.341c-9.861-1.239-22.812,12.03-31.92,23.091c5.589-9.881,13.959-19.581,26.52-26.95
			c12.219-7.17,28-10.821,44.689-14.681c6.409-1.479,12.869-2.98,19.17-4.7c6.091-1.659,12.021-3.529,17.61-5.81
			c10.73-4.351,20.189-10.19,27.029-18.88c3.15-4.001,5.741-8.61,7.65-13.949l0.17-0.48l-3.55-60.67l-3.56,23.7
			c-0.01,0.069-0.261,1.62-0.84,4.109c-1.91,8.07-7.421,26.04-20.32,35.57c-0.771,0.57-1.569,1.11-2.391,1.62
			c-3.69,2.27-8.021,4.22-12.739,5.999c-5.171,1.97-10.82,3.751-16.631,5.59c-27.62,8.72-61.99,19.571-82.669,59.812l0.09,0.04
			c-2.86,3.97-5.19,7.998-7.11,11.93c4.32-19.79,13.17-43.01,31.3-58.7c19.689-17.04,35.02-22.101,48.551-26.57
			c9.71-3.21,18.959-6.26,28.08-13.351c1.46-1.129,2.919-2.369,4.379-3.729c3.471-3.229,6.261-7.109,8.45-11.449
			c7.899-15.561,8.08-36.96,3.991-55.25c-2.012-9.021-5.062-17.28-8.74-23.722c-0.458-0.807-1.301-1.262-2.17-1.262
			C-139.593,573.464-140.021,573.572-140.412,573.797"/>
		<path id="O_1_6_" fill="url(#church-woo-nav-gold)" d="M-295.922,674.277c-5.12-2.569-10.42-5.23-15.961-9.119
			c-14.58-10.241-19.859-28.15-21.47-35.53c29.289,5.21,44.631,25.1,55.881,50.29c-8.57-11.36-20.852-25.021-33.432-30.211
			c-1.029-0.419-2.199,0.061-2.62,1.08c-0.419,1.031,0.071,2.19,1.09,2.62c12.361,5.101,24.802,19.52,33.142,30.831
			C-284.633,679.947-290.203,677.147-295.922,674.277 M-185.782,629.627c-1.61,7.38-6.89,25.289-21.47,35.53
			c-5.541,3.889-10.84,6.55-15.96,9.118c-5.722,2.871-11.291,5.671-16.63,9.962c8.34-11.312,20.779-25.73,33.139-30.831
			c1.02-0.43,1.511-1.59,1.09-2.62c-0.419-1.02-1.589-1.499-2.61-1.08c-12.59,5.19-24.868,18.86-33.438,30.211
			C-230.412,654.727-215.073,634.837-185.782,629.627 M-260.912,640.208c-2.68-11.61-4.68-20.26,1.34-28.98
			c6.03,8.721,4.029,17.37,1.351,28.98c-0.45,1.92-0.91,3.91-1.351,5.97C-260.002,644.118-260.462,642.127-260.912,640.208
			 M-259.573,579.966c20.659,26.611,21.63,53.28,2.939,79.401c0.661-6.65,2.021-12.61,3.28-18.031
			c3.01-13.04,5.609-24.3-4.291-35.769c-0.479-0.551-1.229-0.87-1.96-0.87c-0.72,0-1.408,0.319-1.89,0.87
			c-9.9,11.469-7.3,22.729-4.289,35.769c1.26,5.421,2.62,11.381,3.279,18.031C-281.194,633.247-280.224,606.578-259.573,579.966
			 M-261.503,574.376c-14.05,17.11-20.5,34.56-19.181,51.871c1.071,14.13,7.32,28.2,18.581,41.859v37.96
			c-13.31-38.51-29.091-75.909-74.02-81.93l-3.221-0.431l0.4,3.221c0.149,1.13,3.749,27.97,24.19,42.319
			c5.839,4.101,11.299,6.85,16.59,9.501c12.42,6.229,23.149,11.62,32.719,32.95c0.551,1.619,1.102,3.229,1.651,4.85
			c0.56,1.659,1.129,3.32,1.689,4.979v11.671c0,1.379,1.12,2.5,2.499,2.5h0.071c1.379,0,2.5-1.121,2.5-2.5v-11.671
			c0.561-1.659,1.129-3.32,1.69-4.979c0.55-1.62,1.1-3.23,1.649-4.85c9.569-21.33,20.3-26.722,32.721-32.95
			c5.288-2.651,10.75-5.4,16.59-9.501c20.439-14.35,24.04-41.189,24.189-42.319l0.399-3.221l-3.22,0.431
			c-44.92,6.021-60.709,43.42-74.02,81.93v-37.96c11.26-13.659,17.509-27.729,18.579-41.859c1.321-17.312-5.13-34.761-19.18-51.871
			l-1.939-2.35L-261.503,574.376z"/>
		<path id="O_1_5_" fill="url(#church-woo-nav-gold)" d="M-385.752,671.087c0,3.549,0.148,7.079,0.439,10.579c0.069,0.841,0.149,1.681,0.239,2.52
			c0.2,2.07,0.47,4.13,0.781,6.182c4.639,2.43,9.88,4.46,15.47,6.37c-0.439-1.881-0.83-3.78-1.16-5.701
			c-0.131-0.75-0.26-1.499-0.38-2.26c-0.82-5.17-1.281-10.431-1.371-15.761c-0.389-0.25-0.769-0.52-1.159-0.79
			c-2.351-1.659-4.67-3.549-6.899-5.608c-2.031-1.9-3.87-4.031-5.5-6.371C-385.604,663.836-385.752,667.447-385.752,671.087"/>
		<path id="O_1_4_" fill="url(#church-woo-nav-gold)" d="M-347.773,580.347c-18.121,17.851-30.22,40.141-35.279,64.45c0.35,1,0.72,1.979,1.118,2.939
			c2.091,4.98,4.87,9.12,8.271,12.29c0.71,0.659,1.459,1.33,2.269,2.01c2.121-27.181,13.812-52.36,33.451-71.71
			c21.79-21.47,50.67-33.02,81.271-32.59c57.639,0.86,105.56,45.94,111.069,102.409c0.039-0.039,0.07-0.08,0.109-0.108
			c4.291-3.99,7.55-9.441,9.72-16.191c0.36-1.119,0.691-2.25,0.98-3.399c-5.47-22.119-16.891-42.48-33.43-59.09
			c-23.631-23.76-54.97-37.12-88.24-37.619c-0.649-0.011-1.31-0.011-1.96-0.011C-292.093,543.727-323.752,556.687-347.773,580.347"
			/>
		<path id="O_1_3_" fill="url(#church-woo-nav-gold)" d="M-258.412,507.966c-43.36,0-84.13,16.791-114.92,47.361
			c-17.83,17.709-31.061,38.778-39.102,61.809c-0.759,2.17-1.479,4.361-2.14,6.57c-4.579,15.161-6.95,31.091-6.95,47.381
			c0,41.349,15.5,80.79,43.642,111.05c27.999,30.109,65.908,48.42,106.759,51.57l9.111,0.699l-1.69-8.979
			c-6.04-31.991-30.14-45.16-38.06-49.49l-0.791-0.43l-0.55-0.22c-25.119-10.79-44.891-29.92-56.63-53.351
			c-0.391-0.779-0.78-1.56-1.149-2.35c-5.98-1.571-11.83-3.31-17.38-5.41c0.299,0.83,0.6,1.65,0.92,2.47
			c12.068,31.58,36.5,57.7,68.8,71.54l0.059,0.029c6.221,3.401,21.351,11.671,28.401,30.411
			c-62.241-9.1-111.841-57.11-124.37-117.57c-0.251-1.16-0.48-2.33-0.691-3.5c-0.599-3.319-1.09-6.67-1.469-10.051
			c-0.18-1.61-0.331-3.229-0.46-4.86c-0.301-3.818-0.45-7.679-0.45-11.559c0-0.82,0.011-1.63,0.029-2.44
			c0.01-1.461,0.061-2.921,0.12-4.369c0.18-3.96,0.51-7.901,0.99-11.801c0.2-1.649,0.43-3.301,0.699-4.931
			c1.99-12.709,5.611-25.01,10.751-36.649c0.9-2.02,1.841-4.021,2.82-6.001c2.68-5.409,5.699-10.658,9.05-15.729
			c1.589-2.41,3.261-4.791,5.01-7.11c4.391-5.899,9.26-11.51,14.579-16.79c28.411-28.21,66.132-43.62,106.161-43.3
			c39.721,0.29,77.04,16.16,105.101,44.7c3,3.049,5.85,6.199,8.55,9.45c1.699,2.049,3.35,4.14,4.929,6.26
			c3.851,5.159,7.352,10.52,10.471,16.07c1.11,1.979,2.181,3.979,3.189,5.999c5.921,11.73,10.241,24.181,12.841,37.09
			c0.37,1.79,0.7,3.59,0.99,5.4c0.669,4.101,1.17,8.23,1.499,12.399c0.34,4.391,0.491,8.82,0.45,13.281
			c-0.03,3.278-0.169,6.528-0.419,9.759c-0.312,3.991-0.781,7.941-1.401,11.851c-0.209,1.31-0.43,2.61-0.679,3.899
			c-11.642,62.161-62.61,111.901-126.231,120.681c3.222-12.931,12.9-23.96,26.021-29.1c23.791-9.301,44.051-25.39,58.58-46.51
			c5.96-8.65,10.771-17.901,14.371-27.58c0.309-0.831,0.619-1.67,0.909-2.511c-5.59,2.28-11.52,4.15-17.61,5.81
			c-0.37,0.801-0.76,1.591-1.15,2.381c-12.309,24.799-33.519,44.94-60.199,55.38c-20.271,7.929-34.37,26.62-35.931,47.619
			c-0.049,0.701-0.09,1.401-0.119,2.111l-0.351,7.898l7.881-0.608c40.549-3.15,78.259-21.262,106.179-51.021
			c28.061-29.89,43.74-68.93,44.151-109.921c0.439-43.509-16.23-84.669-46.931-115.899c-30.689-31.22-71.529-48.579-115-48.891
			H-258.412z"/>
		<path id="O_1_2_" fill="url(#church-woo-nav-gold)" d="M-139.342,666.607c-1.481,1.38-3.001,2.681-4.521,3.851c-0.398,0.309-0.789,0.609-1.189,0.899
			c-0.01,5.57-0.45,11.07-1.27,16.48c4.58-1.771,8.29-3.54,11.32-5.41c0.778-0.491,1.54-1,2.25-1.53
			c0.479-0.35,0.949-0.72,1.398-1.1c0.231-3.32,0.321-6.65,0.291-10.001c-0.05-4.27-0.301-8.509-0.77-12.7
			C-133.933,660.738-136.462,663.926-139.342,666.607"/>
		<path id="O_1_._8_" fill="url(#church-woo-nav-gold)" d="M-196.759,746.064c-0.422,0.731-0.172,1.667,0.56,2.09c0.731,0.422,1.666,0.172,2.088-0.561
			c0.423-0.731,0.172-1.667-0.559-2.089c-0.241-0.139-0.504-0.205-0.764-0.205C-195.962,745.299-196.477,745.574-196.759,746.064"/>
		<path id="O_1_._3_" fill="url(#church-woo-nav-gold)" d="M-184.637,738.417c-0.424,0.73-0.173,1.667,0.56,2.089c0.73,0.423,1.666,0.172,2.089-0.56
			c0.422-0.732,0.171-1.667-0.56-2.09c-0.241-0.139-0.504-0.204-0.765-0.204C-183.84,737.653-184.355,737.926-184.637,738.417"/>
		<path id="O_1_._2_" fill="url(#church-woo-nav-gold)" d="M-326.451,745.387c-0.422,0.732-0.172,1.667,0.56,2.089c0.731,0.423,1.666,0.172,2.09-0.56
			c0.423-0.73,0.171-1.666-0.56-2.089c-0.241-0.14-0.504-0.205-0.764-0.205C-325.655,744.623-326.168,744.896-326.451,745.387"/>
		<path id="O_1_._1_" fill="url(#church-woo-nav-gold)" d="M-338.271,737.711c-0.422,0.73-0.172,1.667,0.561,2.089c0.731,0.422,1.667,0.172,2.089-0.56
			c0.423-0.731,0.172-1.667-0.56-2.089c-0.241-0.14-0.505-0.205-0.764-0.205C-337.474,736.947-337.988,737.22-338.271,737.711"/>
		<path id="O_1_1_" fill="url(#church-woo-nav-gold)" d="M-144.113,661.488c-0.42,0.399-0.85,0.779-1.271,1.149c0.17,2.061,0.26,4.141,0.301,6.239
			c1.46-1.129,2.919-2.369,4.379-3.729c3.471-3.229,6.261-7.109,8.45-11.449c-0.419-3.11-0.959-6.19-1.62-9.24
			C-136.024,651.157-139.364,657.057-144.113,661.488"/>
	</g>
	<g id="S">
		<path id="S_6_" fill="url(#church-woo-nav-gold)" d="M-560.899,760.271c-3.983-12.055-7.448-22.542,2.851-38.006
			c10.298,15.464,6.833,25.952,2.849,38.007c-0.998,3.022-2.01,6.083-2.849,9.3C-558.888,766.355-559.9,763.293-560.899,760.271
			 M-559.081,716.799l-0.6,0.82c-9.121,12.48-10.166,22.196-8.544,31.252c-5.815-4.375-11.109-7.573-16.059-9.677
			c-0.561-0.239-1.196-0.208-1.729,0.078c-0.535,0.288-0.911,0.803-1.021,1.4c-0.13,0.71-2.988,17.6,15.257,34.477
			c0.385,0.356,0.872,0.531,1.357,0.531c0.539,0,1.075-0.216,1.469-0.641c0.75-0.812,0.701-2.077-0.11-2.827
			c-12.624-11.677-14.219-23.117-14.219-28.158c5.018,2.473,10.467,6.119,16.552,11.06c0.621,2.138,1.322,4.266,2.032,6.412
			c2.271,6.876,4.618,13.973,4.647,22.496c0,0.104,0,0.209,0,0.313c-0.001,0.369-0.007,0.741-0.018,1.117
			c-0.028,1.103,0.842,2.022,1.946,2.053c0.019,0,0.037,0,0.055,0h0.018c0.022,0.001,0.047,0,0.07,0
			c1.104-0.03,1.976-0.95,1.946-2.053c-0.011-0.376-0.016-0.748-0.017-1.117c0-0.105,0-0.208,0-0.313
			c0.029-8.523,2.376-15.62,4.646-22.495c0.71-2.147,1.412-4.275,2.032-6.413c6.084-4.939,11.535-8.586,16.551-11.059
			c0.001,5.045-1.597,16.483-14.218,28.157c-0.811,0.75-0.86,2.016-0.11,2.827c0.395,0.425,0.931,0.641,1.469,0.641
			c0.485,0,0.973-0.175,1.358-0.531c18.244-16.877,15.386-33.767,15.255-34.477c-0.108-0.598-0.484-1.112-1.019-1.4
			c-0.536-0.286-1.172-0.317-1.731-0.078c-4.948,2.104-10.243,5.302-16.058,9.677c1.622-9.056,0.577-18.771-8.544-31.252
			l-0.634-0.82c-0.333-0.352-0.668-0.525-1.004-0.525C-558.396,716.274-558.738,716.452-559.081,716.799"/>
		<path id="S_5_" fill="url(#church-woo-nav-gold)" d="M-553.964,789.767c24.504-0.646,37.277-12.09,43.678-21.576
			c10.446-15.48,10.417-35.018,5.755-47.511c-6.856-18.369-28.245-27.908-50.89-38.006c-8.946-3.989-18.196-8.115-26.992-12.928
			c-36.719-20.09-54.739-44.815-55.089-75.585c-0.219-19.249,7.356-38.076,20.782-51.655c15.276-15.452,36.914-23.619,62.571-23.619
			c22.527,0,42.169,7.162,58.382,21.286c7.061,6.151,11.926,12.373,14.791,16.564l-26.877,18.718
			c-7.703-9.695-25.494-27.222-52.821-25.854c-19.977,0.996-36.638,14.404-41.458,33.36c-4.671,18.365,3.03,36.246,20.101,46.665
			c13.787,8.414,26.394,13.875,38.585,19.154c18.641,8.074,36.25,15.701,57.144,33.285c12.549,10.561,20.484,30.539,20.713,52.141
			c0.263,25.043-9.771,48.352-27.53,63.95c-20.385,17.903-53.484,26.195-84.324,21.127c-22.331-3.669-53.088-15.542-75.876-50.811
			l30.64-18.142c7.83,12.97,28.479,39.462,66.517,39.464C-555.436,789.796-554.705,789.788-553.964,789.767 M-626.676,532.663
			c-16.037,16.221-25.085,38.694-24.825,61.658c0.406,35.777,21.391,65.286,62.368,87.708c9.294,5.085,18.809,9.328,28.01,13.432
			c20.751,9.254,38.673,17.246,43.475,30.115c3.298,8.838,3.378,23.492-4.243,34.786c-6.635,9.833-17.55,15.018-32.442,15.41
			c-41.322,1.087-58.524-36.412-59.229-37.992l-3.177-7.235l-55.784,33.03l3.47,5.997c20.13,34.807,51.857,57.368,89.339,63.527
			c6.934,1.141,13.915,1.695,20.847,1.695c28.402,0,55.882-9.339,74.985-26.118c20.829-18.292,32.599-45.489,32.292-74.617
			c-0.273-25.952-9.881-49.392-25.697-62.704c-22.463-18.904-41.848-27.301-60.595-35.42c-11.75-5.09-23.901-10.352-36.854-18.258
			c-11.804-7.205-16.974-18.893-13.827-31.264c2.744-10.79,12.648-22.033,28.588-22.828c28.238-1.421,43.768,24.059,44.404,25.126
			l3.833,6.511l49.157-34.233l-2.724-5.421c-1.039-2.069-26.188-50.681-88.843-50.681
			C-583.631,504.887-608.71,514.493-626.676,532.663"/>
		<path id="S_4_" fill="url(#church-woo-nav-gold)" d="M-580.312,539.083c-25.15,9.651-41.974,32.492-41.858,56.834
			c0.192,41.212,41.05,59.362,65.461,70.206c4.058,1.803,7.563,3.359,10.396,4.803c2.004,1.02,4.302,2.121,6.733,3.288
			c22.364,10.734,59.795,28.699,55.187,68.648c-4.604,39.919-35.113,62.704-81.584,60.929c-42.251-1.607-72.823-48.28-73.128-48.751
			c-0.598-0.927-1.835-1.196-2.764-0.597c-0.929,0.599-1.196,1.835-0.598,2.764c1.285,1.995,31.985,48.895,76.338,50.581
			c1.636,0.062,3.256,0.094,4.863,0.094c20.002,0,37.709-4.801,51.451-13.99c16.702-11.167,26.866-28.653,29.395-50.572
			c4.935-42.78-35.634-62.25-57.43-72.712c-2.41-1.155-4.687-2.248-6.65-3.247c-2.927-1.49-6.477-3.066-10.586-4.892
			c-23.527-10.452-62.904-27.945-63.085-66.571c-0.106-22.689,15.684-44.021,39.293-53.08c28.44-10.914,59.716-1.396,83.659,25.461
			c0.733,0.822,1.998,0.897,2.822,0.16c0.824-0.733,0.897-1.999,0.162-2.822c-18.208-20.424-40.534-31.25-62.9-31.247
			C-563.593,534.368-572.063,535.918-580.312,539.083"/>
	</g>
</g>
</svg>
