<?xml version="1.0" encoding="utf-8"?>
<!-- Generator: Adobe Illustrator 15.0.0, SVG Export Plug-In . SVG Version: 6.00 Build 0)  -->
<!DOCTYPE svg PUBLIC "-//W3C//DTD SVG 1.1//EN" "http://www.w3.org/Graphics/SVG/1.1/DTD/svg11.dtd">
<svg version="1.1" id="Layer_1" xmlns="http://www.w3.org/2000/svg" xmlns:xlink="http://www.w3.org/1999/xlink" x="0px" y="0px"
	 width="2048px" height="2048px" viewBox="0 0 2048 2048" enable-background="new 0 0 2048 2048" xml:space="preserve">
<g>
	<defs>
		<rect id="SVGID_1_" width="2048" height="2048"/>
	</defs>
	<clipPath id="SVGID_2_">
		<use xlink:href="#SVGID_1_"  overflow="visible"/>
	</clipPath>
	<path clip-path="url(#SVGID_2_)" fill="#FBEE98" d="M1931.053,325.876c-36-21.18-75.53-9.06-75.53-9.06s-5.88-18.94-27.18-24
		c-21.29-5.06-51.76,11.18-77.29,36c-14.189,13.79-32.729,29.04-46.41,39.86c44.301-43.81,66.37-140.34,27.12-208.57
		c-44.47-77.29-131.649-94.35-193.06-74.82c-61.41,19.53-102.36,80.71-107.061,123.06c-4.71,42.35,8.761,91.88,61.53,110.41
		c52.76,18.53,99-3.88,111.53-40.76c12.529-36.89-2.24-69.89-33.18-77.53c-30.521-7.55-38.721,17.76-38.931,18.46
		c17.76-13.17,50.46-7.29,57.75,16.01c7.3,23.29-2.229,57.53-44.76,64.23c-42.53,6.71-100.771-31.41-83.82-102
		c16.94-70.59,86.11-91.06,154.58-72.53c68.47,18.53,96,104.3,80.12,164.65c-15.88,60.35-74,121.41-154.23,133.88
		c-80.239,12.47-179.829-19.35-235.77-48.65c-55.5-29.06-145.4-91.53-146.8-92.51c89.87,38.57,149.51,25.16,185.149,5.28
		c35.65-19.88,53.181-56.47,44.83-84.47c-8.35-28-38.35-42.35-61.41-32.82c-23.06,9.521-26.829,35.41-26.829,35.41
		s9.89-20.47,30.71-22.59c20.819-2.12,43.06,13.29,41.06,40.47c-2,27.18-31.24,60.88-85.06,62.82
		c-53.82,1.94-88.24,0.71-190.94-52.59c-102.71-53.29-196.83-111.521-312.12-135.05s-218.82-5.89-289.65,21.88
		c-70.82,27.76-125.88,76.23-156.23,127.76c-30.36,51.53-33.65,106.47-40.88,132.06c-7.24,25.59-13.48,29.83-36.06,52.65
		c-22.59,22.82-108.24,103.29-151.53,225.18c-43.3,121.88-46.95,224.71-34.59,304.7c13.88,89.88,46.82,177.88,122.12,238.35
		c75.29,60.471,132.7,43.771,132.7,43.771c-5.17,67.76,28.59,133.29,78.36,151.47c49.76,18.181,91.94,13.061,128.11-13.06
		c36.18-26.12,47.06-67.471,34.36-101.71c-12.71-34.23-33.03-45.641-55.89-45.91c-22.85-0.26-35.76,20.27-35,32.439
		c0.77,12.181,7.3,14.771,7.3,14.771c-5.47-25.061,6.97-32.74,24.7-34.771c17.74-2.029,35.83,13.591,42,38.301
		c6.18,24.699-0.35,60.35-30.53,77.649c-30.17,17.29-71.29,17.521-105.41-20.12c-34.12-37.649-41.41-95.649-19.17-146.12
		c22.23-50.47,68.7-63.649,97.17-59.76c28.47,3.88,59.8,28.08,76.21,49.79c16.41,21.71,41.47,70.851,47.91,86.32
		c9.68,23.26,22.47,64.36,20.94,73.06c-1.53,8.71-24.7,20-24.7,20c12.58,15.65,23.76,11.061,40.58,36.351
		c16.83,25.3,23.65,54.71,34.24,106.95c10.59,52.229,12.68,108.529,10.38,129.789c-2.29,21.261-18.44,46.24-18.44,46.24
		c19.68,13.5,18.53,16.67,44.47,63.26c25.94,46.591,63.35,58.24,63.35,58.24l1.94-5.649c-33.35-31.41-24.88-91.41-9.7-176.83
		c15.18-85.41,55.76-178.58,55.76-178.58c5.65,18.17,39.77,128.7,43.65,161.41c3.88,32.699,0,57.819,0,57.819s5.47-1.59,8.71,0.351
		c3.23,1.95,14.94,25.95,36.23,49.71c21.3,23.77,69.77,39.649,69.77,39.649l3.21-3.21c-13.67-12.29-28.01-32.41-32.74-64.319
		c-9.89-66.71,12.35-155.65,27.88-231.88c15.53-76.24,51.53-159.181,86.35-206.95c34.83-47.761,86.24-82.471,139.71-88.641
		c53.471-6.18,91.23,14.471,107.82,42.88c16.59,28.41,4.061,46.591,4.061,46.591c6.88-3.53,22.77-21.061,21.819-47.41
		c-0.939-26.36-17.88-56.94-80.47-64.94c-61.99-7.92-130.45,30.32-131.74,31.04c131.76-97.87,314.33-75.04,381.86-53.87
		c67.53,21.181,127.3,75.061,148.239,118.83c20.94,43.76,30,100.94,5.761,130.11c-24.23,29.18-46.82,21.77-58.351,13.3
		c-2.18-1.6-3.899-3.24-5.24-4.83c-3.959-4.68-4.84-11.12-2.97-16.96c2.54-7.979-0.939-15.729-6.85-15.04
		c-8.12,0.94-13.29,19.771-8.12,31.18c3.74,8.261,22.35,26,46.35,27.65c24,1.64,80-32.24,63.53-119.77
		c-16.21-86.16-97.51-141.881-100.05-143.601c113.24,63.51,154.41,147.851,167.82,178.9c13.409,31.06,22.35,85.64,16,126.35
		c-6.351,40.71-30.12,93.41-93.41,126.59c-62.76,32.891-126.67,13.74-127.76,13.42c11.789,12.71,65.189,36.801,153.399-11.189
		c88.24-48,86.12-161.29,86.12-161.29c9.53,60.35-9.88,134.59-32.7,176.47c-22.83,41.88-87.06,113.88-179.77,106.59
		c-92.7-7.3-110.65-78.27-103.94-98.56c6.71-20.3,24.09-25.32,24.09-25.32c19.23,5.2,13.94,24.17,13.94,24.17s-1.06,6.44,6.62,4.771
		c7.67-1.681,11.64-17.3,1.29-32.24c-10.351-14.94-28.82-9.88-28.82-9.88c19.88-19.88,38.59-75.41,43.53-98.24
		c4.939-22.82,9.88-36.82,9.88-36.82c-6.94-12.819-2.59-29.529-20.24-81.76c-17.64-52.24-47.29-83.95-88.05-88.89
		c-40.77-4.94-82.24,24.99-98.3,54.89c-29.47,54.88-32.47,105.7-33.181,113.641c-0.699,7.939,3.061,47.649,21.42,91.88
		c18.351,44.239,53.41,69.42,81.471,75.06c27.71,5.58,52.6-5.479,53.22-5.75c-0.479,0.6-12.95,16.47-8.05,47.4
		c5.46,34.39,35.47,55.529,35.47,55.529c-40-7.76-88.939-37.88-168.7-36.71c-84.47,1.25-145.18,44.24-178.59,88.471
		c-33.41,44.239-30.35,91.77-46.35,132.59c-16,40.81-52.471,77.3-112.94,76.12c-60.47-1.181-83.71-43-85.47-81.2
		c-1.77-38.19,27-66.09,55.76-70.33c28.76-4.229,52.53,10.94,58.18,28.12c5.641,17.18-0.56,36.91-18.47,41.229
		c-17.92,4.33-32.74-7.05-32.74-7.05c0.32,11.471,15.62,21.7,36.62,18.41c24-3.77,35.839-27.5,35.53-50.09
		c-0.24-17.21-23.53-59.09-80.24-50.15c-56.7,8.94-88,67.061-73.41,122.83c14.59,55.76,79.53,78.11,146.12,76
		c66.59-2.12,143.29-37.649,190.12-63.06c46.82-25.42,84.7-35.42,132.351-49.891c47.649-14.47,159.18-33.409,250-87.05
		c90.819-53.649,159.76-112.359,192.59-206.95c32.819-94.579,16.59-176.47-1.41-231.529c-18-55.05-81.061-142.23-157.53-192.58
		c-76.47-50.36-168.239-70.12-234.12-70.12c-65.88,0-165.649,17.59-229.35,53.06c-63.71,35.471-118.59,84-145.061,123.351
		c-26.47,39.35-53.649,99.529-61.239,124.24c-7.59,24.699-23.82,77.289-32.82,111.88c-9,34.59-20.83,90.529-20.83,90.529
		s0.18-10.77-10.13-43.06c-10.31-32.3-48.81-154.12-48.81-154.12c48.94-73.88,56.71-179.53,56.71-179.53
		c-97.18,17.65-146.59-27.76-164.47-72c-17.68-43.729,5.8-69.989,6.34-70.58c-38.81,21.65-27.22,92.23,14.95,132.29
		c42.18,40.061,98.24,36.641,98.24,36.641l-26.41,103.83c0,0-19.24-48.301-26.18-61.351c-6.94-13.06-20.35-16.83-39.29-28.95
		c-17.49-11.17-21.34-26.46-21.83-28.76c2.41,13.521,17.7,33.5,16.47,38.47c-1.23,5-22.17,23.82-22.17,23.82
		s17.64,12.94,24.35,25.771c6.7,12.819,30.82,75.409,31.06,91.88c0.23,16.47-65.41,179.529-65.41,179.529
		c1.41-91.289-58.12-310.35-114.59-388.71c-56.47-78.35-112.71-84-161.88-83.05c-49.18,0.94-99.65,54.351-139.3,70.82
		c-24.29,10.09-77.88,11.06-103.53-32.47c-25.65-43.53-13.53-94.83,0.24-124.12c13.76-29.29,44.7-58.71,57.41-80.82
		c12.7-22.12,7.76-49.41,7.76-49.41s13.42,24.47,56.71,64.93c40.35,37.72,120.94,70.12,180.47,69.18
		c59.53-0.94,107.53-23.76,107.53-23.76s-28,24.94-105.18,29.88c-77.17,4.94-152.23-31.65-186.59-49.18
		c-34.35-17.53-46.29-38.55-46.29-38.55l-19.41,12.43c22.06,37.76,77.82,60.36,117,76.59c39.18,16.239,120.7,23.649,168.7,12.239
		c48-11.41,85.77-33.5,112.33-51.68c26.56-18.17,53.29-43.06,79.59-56.38c26.29-13.32,45.7-9.53,55.67,7.59
		c9.97,17.12,0.18,30.88,0.18,30.88c27.06-9.18,25.53-35.27,9.71-51.17c-6.99-7.02-15-11.24-27.71-12.89
		c-34.8-4.51-67.24,16.94-97.94,36.36c-30.71,19.41-99.83,64.47-180.3,55.29c-80.47-9.18-142.58-43.29-183.29-97.65
		c-40.71-54.35-45.47-104.82-45.12-132c0.36-27.17,13.65-41.7,19.88-52.17C318.053,697.466,322.25,692,322.25,692
		s-7.377-0.364-17.607-0.364c-10.24,0-30.18-2.82-27.71-63.17c2.47-60.36,26.71-129.3,56.12-170
		c29.41-40.71,85.24-65.59,120.35-63.3c35.12,2.3,47.47,31.77,47.47,31.77c8.65,9.53,10.42,27.17,7.77,46.23s-26.3,55.94-34.41,87
		c-8.12,31.06,9,64.41,22.76,69.71c13.77,5.29,36-4.94,41.65-16.77c5.65-11.82-1.94-21.35-1.94-21.35s-9.89,15.53-16.77,18
		c-6.88,2.47-17.82,2.82-19.59-17.12c-1.76-19.94,3.36-41.29,26.3-73.06c22.94-31.76,56.12-74.29,73.94-102.7
		c17.82-28.41,8.23-54.06,8.23-54.06c-9.17,6.47-31.76,21.18-55.17,15.53c-23.41-5.65-87.53-26.41-107.3-34
		c-19.76-7.59-31.17-20.24-17.29-52.47c13.88-32.24,51.35-54.3,98.65-42.12c47.29,12.18,81.756,61.782,110.29,102.12
		c34.119,48.233,73.178,59.292,121.24,60.06c46.081,0.737,80.82-37.42,102.88-57.53c22.06-20.12,36-31.41,64.06-36.71
		c28.06-5.29,53.29,5.47,70.23,31.41s5.83,69.53-30.53,75.53c-36.35,6-44.29-24.7-44.29-24.7c-1.59,12.17,6.18,32.64,37.06,34.23
		c30.88,1.59,64.23-31.59,59.47-67.06c-4.77-35.47-33.18-63.35-78.18-67.76c-45-4.41-82.64,33.229-82.64,33.229
		c4.23-13.41,6.35-49.64,0-71.76c-6.36-22.12-24.83-60.3-74.95-70c-50.11-9.71-93.64,26-97.64,61.06s14.7,61.64,36.11,65.17
		c21.42,3.53,36.12-8.23,38.83-17.53c2.7-9.29-3.06-11.29-3.06-11.29s-9.79,26.12-30.27,20.82c-20.47-5.29-32.2-34.41-29.55-56.11
		c2.64-21.71,31.05-57.53,82.76-44.65c51.71,12.88,55.65,56.06,56.59,90.88c0.94,34.83-29.65,101.41-105.18,91.06
		c-75.53-10.35-91.53-75.53-136.17-125.47c-44.65-49.94-108.89-31.59-108.89-31.59c58.24-45.88,172.36-93.06,285.53-73.29
		c113.18,19.76,194.36,72.94,279.77,129.17c85.41,56.24,175.88,103.12,253,132.95c77.12,29.82,148.23,37.58,225,31.58
		c76.76-6,167.64-61.94,207-96.7c39.35-34.77,67.94-49.41,85.85-49.94c17.91-0.53,25.15,13.76,25.15,13.76
		c-78,29.3-85.88,136.82-88.71,184.82c-2.82,48-0.7,143.65-0.7,143.65c-29.53-30.23-98-26-98-26v-74.12
		c0-34.58,15.53-49.17,15.53-49.17h-87.061c0,0,13.641,8.47,16.82,29.64c3.18,21.18,4.24,59.77,4.76,97.53
		c0.051,3.87,0.11,8.62,0.17,14.03c-5.08,2.68-36.38,19.88-44.689,39.86c-9.061,21.76-4.95,26.23-4.95,26.23l9.65,10.71
		c0,0-1.181-14.71,12.239-29.06c9.791-10.48,22.091-16.44,28.011-18.9c0.42,50.4,0.81,119.63,0.81,132.78
		c0,17.77,1.76,75.82-22.24,109.18c-24,33.35-58.409,45-58.409,45c35.829-2.65,56.649-4.94,92.47-42.53
		c35.83-37.59,36.89-82.94,36.89-146.47v-112.83c26.16,4.04,43.55,13.39,48.94,30c-15.41,12.24-8.83,27.05,3.88,26.95
		c13.76-0.12,17.53-17.77,15.06-34.24c-2.47-16.47-17.649-21.76-17.649-21.76c17.3,3.64,38,16.23,44.47,36.58
		c6.47,20.36,7.47,55.89,7.47,93.12c0,37.24-19.939,58.06-19.939,58.06l82.06-1.41c-9-8.3-16.76-23.65-16.76-59.65v-194.82
		c0-48.71,5.64-121.77,13.58-154.77c7.939-33,26.3-78.35,62.12-87c35.819-8.64,56.3,5.53,67.47,22.24
		c11.18,16.7,13.18,61.85-11.35,73.32c-24.53,11.47-42.881-5.56-43.5-19.41c-0.62-13.85,10.97-20.68,10.97-20.68l-5.65-5.82
		c-32.819,6.59-23.41,59.06,8.59,64.47c32.001,5.41,60.82-11.76,67.181-45.47C1983.053,381.046,1967.053,347.046,1931.053,325.876
		 M1529.613,1478.196c-7.21,22.72-18.141,44.01-32.09,62.85c8.939-21.67,16.72-43.409,21.619-65.67
		c16.54-69.08-1.569-135.83-34.09-197.5C1532.043,1331.366,1552.543,1409.656,1529.613,1478.196 M1381.243,1530.246
		c-12.03-16.649-20.07-35.81-25.7-55.52c-15.3-58.11-10.19-133.98,29.439-181.601c8.15-9.54,17.711-18.38,29.131-23.72
		c-53.351,45.72-59.4,137.91-48,202.87c4.76,23.88,11.859,47.43,24.119,68.77
		C1386.913,1537.736,1383.963,1534.057,1381.243,1530.246 M1435.173,1553.517c-19.77-4-44-42.351-51.77-85.17
		c-7.761-42.83-10.641-183.061,57.18-192.351c24.51-3.359,52.71,21.521,63.76,92.58c11.061,71.061,3.3,119.061-12.229,150.59
		C1476.583,1550.696,1454.933,1557.517,1435.173,1553.517 M1137.993,1935.166c-42.23,20-88,21.94-88,21.94s30.59-12.351,57.59-40.23
		s40.59-88.239,40.59-88.239c12.7,27.18,43.7,45.59,70.88,51c7.96,1.59,16,2.3,24.54,2.05
		C1195.883,1901.126,1164.743,1922.496,1137.993,1935.166 M1607.173,1758.937c-69.88,34.06-178.64,77.04-261.71,93
		c-3.96,0.76-7.84,1.54-11.65,2.359c34.131-22.55,41.29-66.479,35-93.949c-6.939-30.351-36.529-39.771-37.449-40.051
		c12.71,8.841,31.569,39.88,28.75,66.87c-2.82,27-24.881,54.88-55.061,67.59c-30.18,12.711-71.529,16.881-109.649-1.47
		c-38.11-18.35-56.591-89.41,2.359-138.47c58.94-49.061,113.29-58.94,156-57c42.7,1.939,70.94,15.7,70.94,15.7
		c-22.12,0.83-49.061-10.23-91.18-7.761c-42.12,2.471-69.23,19.681-89.62,39.62c-20.38,19.94-22.38,44.971-19.851,55.73
		c2.53,10.77,14.82,29.5,34.32,31.53c19.5,2.029,25.27-10.17,25.27-10.17c-11.649,3.88-40.59,3.289-42.939-24.95
		c-2.36-28.23,11.06-42.471,36.82-59.88c25.77-17.41,69.529-21.29,117-12.82c47.47,8.47,110.47,27.53,190.939,30
		c79.39,2.439,144.7-50.271,146.43-51.67C1730.213,1665.026,1675.963,1725.406,1607.173,1758.937 M397.523,1347.637
		c26.35,37.88,82.35,41.409,82.35,41.409s-50.35,11.53-87.29-23.05c-36.94-34.59-43.77-87.06-43.06-93.649
		c0.71-6.591,4.71-22.591,4.71-29.65s-6.12-5.18-6.12-5.18c11.76-21.88,35.53-46.11,35.53-46.11
		C353.163,1268.036,371.173,1309.756,397.523,1347.637 M305.523,1194.696c34.82-9.65,64.59-29.06,91.59-47.59s66.7-38.64,104.12-33
		c37.41,5.649,71.82,23.649,108.76,67.649c36.94,44,65.18,118.591,81.41,173.181c16.24,54.58,34.3,134.35,38.36,183.76
		c4.05,49.41-1.18,114.71-1.18,114.71c10.35-6.59,20-41.06,20-41.06c9.65-9.65,12.23-17.88,26.35-62.351
		c14.12-44.479,60.71-161.3,60.71-161.3s-36.94-105.06-38.47-109.65c-1.53-4.579-10.12-8.47-10.12-8.47l15.06-5.76
		c0,0,8.47,2.82,13.06,12.229c4.59,9.421,18.94,41.301,25.06,60.12c6.11,18.83,2.23,36.83,2.23,36.83s13.12,29.88,25.65,62
		c12.53,32.11,30.35,92.11,39.65,128.94c9.29,36.819,9.32,49.819,9.32,49.819l5.73,0.53c2.74-2.38,5.56-7.41,8.56-14.649
		c3-7.23,7.33-10.881,7.33-10.881s33.17-155.88,68.11-252.939c34.68-96.3,96.79-137.53,97.76-138.17
		c-16.24,16.07-50.23,61.46-59.17,79.229c-8.94,17.761-35.88,75.17-44.59,99.88c-8.7,24.711-30.97,109.061-34.32,125.03
		c-3.35,15.97-19.06,91.681-22.06,108.26c-3,16.591-5.2,42.061-4.56,54.471c0.65,12.42,6.71,23.06,6.71,23.06
		c-4.59-1.939-6.29-6.109-17.35-19.17c-11.06-13.06-23.47-20.12-23.47-20.12s2.58-22-13.12-79.77
		c-15.71-57.761-29.83-102.471-35.12-121.41c-5.29-18.94-16.35-28.11-16.35-28.11c-0.36-12-4.36-21.3-4.36-21.3
		s-53.64,140.47-68.7,198.12s-27.77,143.53-27.77,143.53c-6.58-39.771-30.35-69.88-30.35-69.88
		c5.65-19.061,13.65-46.83,8.47-108.711c-5.17-61.88-13.65-106.119-27.53-141.649c-13.88-35.53-41.82-56.11-41.82-56.11l15-6.71
		c6.35-38.47-8.82-69.88-39.53-129.88s-60.29-88.39-113.88-104.939c-53.6-16.551-128.41,39.819-139.71,52.529
		c-11.29,12.7-34.41,55.94-93,48.641c-58.13-7.23-112.79-73.891-113.64-74.931C212.353,1194.937,270.703,1204.347,305.523,1194.696
		 M254.703,929.517c-3.53,8.95-16.59,30.71-33.18,58.42c-16.59,27.7-27.88,69.7-21.53,112.58c6.35,42.89,38.24,69.239,76.82,81.479
		c0,0-59.52,4.94-103.29-42.59c-43.76-47.53-68.12-109.65-76.59-154.47c-8.47-44.83-9.29-107.65-9.29-107.65s17.65,91.53,117.41,84
		c0,0-54.12,2.35-87.76-53.18c-33.65-55.53-21.65-130.35-12.48-172.47c9.18-42.12,27.53-100.94,60-157.88
		c32.47-56.92,80.67-115.72,107.03-137.85c-1.23,1.42-40.72,47.02-58.55,91.03c-18.12,44.7-23.727,64.974-29.42,101.41
		C175.333,687,129.5,718.75,129.5,718.75s18.634,14.067,26.833,22.583c8.405,8.729,15.646,14.881,24.333,23.333
		c12.333,12,5.594,19.41,10.333,33c7.06,20.23,12.403,49.5,39.933,85.97C258.463,920.106,258.233,920.576,254.703,929.517
		 M239.863,753.026c-0.52-0.8-20.283-24.356-41.363-36.276c0,0,16.143-6.583,15.613-39.583c0,0,8.12,35.38,34.59,39.71
		C248.703,716.876,232.943,725.756,239.863,753.026 M261.293,902.696c-35.3-34.59-54.293-112.03-54.293-112.03
		s45.313,36.59,54.293,56.27C267.403,860.346,261.293,902.696,261.293,902.696 M276.813,537.046
		c-21.76,81.89-21.17,118.83-11.29,142.59c9.88,23.77,30.727,27.614,30.727,27.614s-21.957,22.856-24.437,57.267
		c-2.47,34.42,1.521,63.15,1.521,63.15C220,768,227.667,772,151.667,717.333c0,0,23.626-13.867,32.626-32.397
		c9-18.53,13.94-45.18,13.94-45.18s1.67,27.26,1.94,44.74c0.26,17.47-14.21,30.08-25.5,32.82c0,0,20.5,9.38,40.26,26.09
		c19.46,16.44,35.55,38.76,36.05,39.45c-0.15-0.91-4.92-29.14-0.64-46.51c4.36-17.65,16.71-25.03,16.71-25.03
		s-22.06-4.85-35.29-24.44c-13.24-19.59-15.42-68.65-2.47-117.36c12.94-48.69,50.46-113.62,100.56-143.98
		C328.893,426.457,298.233,456.446,276.813,537.046 M354.233,394.636c-22.58,8.08-38.85,17.69-39.35,17.99
		c20.64-29.81,17.64-48.16,17.64-77.28c0-28.67,9.41-49.12,9.7-49.75c-0.21,1.08-7.5,38.52,10.42,67.13
		c12.12,19.37,35.38,20.74,35.38,20.74S377.173,386.437,354.233,394.636 M456.813,369.636c22,4.47,44.95,10.18,70.53,22.53
		c25.59,12.35,57.89,4.59,57.89,4.59c-18.17,32.01-39.31,60.89-64.24,85.76c0,0,8.3-26.29,2.82-53.11
		c-4.31-21.16-20.29-44.65-58.58-53.3c-38.3-8.64-74.3,5.77-74.3,5.77c14.12-17.77,15.36-56.24,15.36-56.24
		C414.933,354.816,434.813,365.167,456.813,369.636 M557.523,175.996c-52.23,28.23-76.59,47.82-94.59,58.23
		c-18,10.41-66.35,40-82.23,121.41c0,0-24-12.35-25.94-43.59c-1.95-31.23,31.94-106.76,89.82-140.64
		c57.88-33.89,160.23-36.71,222-31.41C666.583,139.996,609.763,147.756,557.523,175.996 M1270.813,387.406
		c-121.76-58.94-215.42-130.05-296.47-173.3c-94.58-50.47-255.64-119.64-467.88-80.11c0,0,91.3-40.24,223.06-22.83
		c131.77,17.41,232.94,62.59,361.88,147.77c128.939,85.17,248.939,172.94,412,180.7
		C1503.403,439.636,1392.583,446.347,1270.813,387.406 M1639.873,400.347c14.439-11.74,27.43-25.44,38.7-40.14
		c34.38-44.7,46.96-96.95,32.27-151.8c-6.45-25.51-18.29-50.15-37.33-68.6c-32.75-31.98-81.319-42.26-126.109-40.87
		c37.449-9.75,78.279-6.92,113.249,10.96c29.07,14.81,51.311,41.88,62.75,72.32c19.141,48.65,17.28,105.15-10.579,150.1
		C1695.323,361.006,1669.893,385.267,1639.873,400.347 M1638.763,649.066v69.63c0,57.88,3,91.77-2.42,118.82
		c-5.41,27.06-10.58,46.12-26.58,69.18c0,0,19.05-41.41,19.05-80.23v-174.01c-9.279,3.26-18.479,6.78-27.76,10.12
		c8.141-4.89,17.74-9.56,27.76-13.21v-120.55c0-7.63-1.68-11.05-1.779-11.26c0.3,0.189,5.84,3.67,13.05,2.55
		c0,0-1.32,8.12-1.32,31.41v94.63c8.65-2.46,17.351-3.97,25.47-4.04C1655.573,643.926,1647.123,646.346,1638.763,649.066
		 M1803.643,414.227c-16.939,58.82-13.649,108-13.649,147.53v255.71c0,2.76-2.24,5-5,5c-2.761,0-5-2.24-5-5v-289.77
		c0-51.35,5.409-168.88,83.06-194.29C1863.053,333.406,1820.583,355.406,1803.643,414.227"/>
	<path clip-path="url(#SVGID_2_)" fill="#FBEE98" d="M1176.348,1248.815c34.813-2.494,79.764,15.529,100.47,73.412
		c19.29,53.924,21.53,87.882,24.471,97.529c0,0-3.646,10.94-10.883,53.646c-7.234,42.706-51.588,109.765-104.47,111.706
		c-54.029,1.983-88.412-47.647-101.647-83.118c-13.235-35.47-19.059-66.528-27.177-74.117c0,0,3-12.883,8.118-36.529
		C1070.348,1367.697,1094.229,1254.697,1176.348,1248.815 M1119.405,1441.285c7.766,68.118,28.472,112.942,64.472,113.266
		c36,0.322,56.94-37.029,60.471-121.383c3.529-84.353-25.766-159.034-68.471-155.292
		C1127.523,1282.114,1111.642,1373.168,1119.405,1441.285 M1140.229,1279.639c-68.182,53.498-71.357,188.999-19.067,254.369
		c8.324,10.286,18.43,19.263,30.009,25.16c-9.748-8.558-17.689-18.513-24.085-29.295
		C1087.666,1462.065,1089.805,1341.454,1140.229,1279.639 M1211.171,1269.406c41.364,58.522,60.976,132.656,46.774,203.45
		c-4.548,23.688-12.783,46.383-23.48,68.19C1300.502,1463.924,1286.678,1335.343,1211.171,1269.406"/>
	<path clip-path="url(#SVGID_2_)" fill="#FBEE98" d="M804.343,777.996v-217.89c0-40.23,13.3-58.35,18.42-63.759h-84.3
		c0,0,16.47,10.819,16.47,65.649c0,54.82,1.65,85.17,1.65,85.17c-26.63-18.84-57.53-28.68-95.47-23.63v-77.66
		c0-39.18,16.94-48.12,16.94-48.12h-88.53c18.77,15.41,20.59,45.82,20.59,89.94v51.939c0,0-33.35,17.06-44.3,40.53
		c-10.94,23.47-0.88,37.59,1.59,39.53c0,0,1.15-17.65,19.59-33.97c6.09-5.39,14.29-10.3,23.12-14.56v151.77
		c0,108.7-58.94,124-58.94,124c60.47-0.24,82.82-30.589,99.76-81.18c16.94-50.59,10.18-108.47,10.18-163.53v-47.48
		c16.01-0.88,39.3,17.05,38.06,24.19c-1.3,7.411-9.53,4.47-10,16.7c-0.47,12.24,25.85,18.331,35.12,4.56
		c9.26-13.76-0.18-38.91-8.89-46.32c0,0,36.12,12.35,41.3,43.76v83.771c0,34-9.3,50.82-15.65,59.53h81.71
		C822.763,840.936,804.343,828.106,804.343,777.996 M640.343,649.646v130.93c0,94.59-29.53,119.3-29.53,119.3
		c23.97-42.35,21.36-90.36,19.42-141c-1.3-33.86-1.49-63.62-1.64-95.45c-0.01-3.22-0.03-6.459-0.04-9.73
		c-8.66,2.93-17.29,5.79-25.62,8.41c8.31-4.09,16.87-7.75,25.61-10.889c-0.03-5.721-0.06-11.521-0.1-17.451
		c-0.03-6.49-0.08-13.12-0.15-19.95c-0.53-52.94-1.3-91.12-1.3-91.12c-5.18-3.47-4.82-7.29-4.82-7.29h18.17v22.17v109.76
		c7.16-2.15,14.43-3.94,21.77-5.34C655.053,644.496,647.733,647.076,640.343,649.646 M747.908,661.816l-1.934-1.582l-2.055-1.432
		c-18.835-13.773-41.074-21.855-63.69-27.046c15.233,0.193,30.346,4.483,43.966,11.193c1.566,0.873,5.26,2.717,6.687,3.718
		c1.07,0.681,3.235,2.055,4.303,2.739c4.16,2.912,8.083,6.228,11.711,9.782c1.701,1.876,3.371,3.803,4.98,5.745
		C750.53,663.904,749.206,662.868,747.908,661.816 M784.935,524.227v147.118v150.176h-10.941V528.933
		c0-10.765-6.235-13.529-6.235-13.529H786.7C786.7,515.404,784.935,516.815,784.935,524.227"/>
	<path clip-path="url(#SVGID_2_)" fill="#FBEE98" d="M1066.465,431.521c-39.882,38.294-54.353,78.706-54.588,143.412
		c-0.236,64.706,0,75.529,0,129.412c0,53.882,0,91.059-35.765,99.294c-35.765,8.235-67.412-14.235-71.118-62.941
		c-3.706-48.706,27.118-110.706,34.177-157.765c7.059-47.059-14.865-76.931-41.059-85.412
		c-28.706-9.294-54.941,13.883-54.941,13.883s42.588-7,46.823,41c4.236,48-11.529,75-24.47,129.352
		c-12.941,54.354-22.471,110.824,34.706,149.648c57.176,38.823,101.411-1.059,117.294-21.883v15.647
		c0,10.824-4.589,18.824-4.589,18.824h69.765c0,0-22.234-13.294-22.234-52.294V569.345c0-56.118,6.176-96.883,30.176-125.294
		c24-28.412,52.412-34.765,68.648-38.295l1.058-2.823C1160.347,402.933,1106.347,393.227,1066.465,431.521 M926.523,824.698
		c-41.471-11.294-57.471-55.647-53.471-98s28-94.588,34.353-144.706c6.353-50.118-5.412-62.588-5.412-62.588
		s20.941,11.764,18.118,48.941c-2.824,37.176-14.824,58.823-27.059,111.529s-13.288,84.236,4,112.236
		c17.289,28,53.177,37.176,89.882,25.646C986.935,817.756,967.994,835.992,926.523,824.698 M1040.111,582.933
		c0.235,42.118,0.941,156.354,0.766,181.412c-0.178,25.059-1.236,57.353-1.236,57.353s-5.581,1.071-5.646,0
		c-1.411-23.118-1.765-36.706-1.765-72.706V574.11c0-98.118,34.235-123.648,34.235-123.648
		C1042.935,489.756,1039.877,540.815,1040.111,582.933"/>
	<path clip-path="url(#SVGID_2_)" fill="#FBEE98" d="M1918.933,1147.876c-23.76,18.82-78.35,42.591-93.17,77.17
		c-14.83,34.591-7.45,62.99,10.641,69.421c13.409,4.76,27-6.891,27-6.891s0.529,22.94-23.82,21.36
		c-24.35-1.59-45.35-15.53-42.53-50.12c2.82-34.59,31.76-66,46.59-77.65c14.811-11.64,29.271-20.34,35.4-25.399
		c-0.78,0.359-31.45,14.609-71.99,7.989c-41.06-6.71-80.59-33.289-87.649-82.939c-7.061-49.65,21.18-105.18,67.06-109.65
		c45.88-4.47,72.35,26.61,73.24,52.83c0.88,26.23-14.29,45.82-36.36,45.82c-24,0-35.47-19.771-20.29-33.18
		c0,0,6.471-0.29,7.181,4.88c0.699,5.18-0.83,17.18,11.409,15.649c12.23-1.529,26-23.17,16.591-45.649
		c-9.421-22.47-32.36-34-53.301-26.35c-20.939,7.65-40.29,29.06-46.29,60.12c-6,31.061,12.17,87.71,74.65,97.061
		c62.47,9.35,121.05-37.24,132.35-84c11.29-46.771-0.35-92.12-27.35-120.88c-27-28.77-67.59-48.42-117.71-33.12
		c-50.12,15.29-99.771,70.35-150.82,96.47c-51.06,26.12-143.18,38.12-226.83-6c-83.64-44.12-134.12-153.88-153.88-201.53
		c-19.76-47.65-31.41-76.77-44.12-94.24c-12.699-17.47-28.59-26.29-28.59-26.29l1.061-20.29c0,0,42,6.7,60.529-34.42
		c18.53-41.11-3-86.17-38.529-92.05c-19.141-3.17-33.011-2.79-41.75-1.76c-0.78,6.24-2.681,21.72-3.42,30.23
		c-0.94,10.82-1,205.82-0.12,232.64c0.88,26.83,7.41,46.41,17.47,55.41l-84,1.24c0,0,16.94-12.53,16.94-51.71v-219
		c0-40.76-3.41-64.23-19-69.35v-5.35c0,0,92.939-0.12,123.649-1c30.7-0.88,78.17,20.65,87.351,70.59
		c9.18,49.94-20.65,92.82-67.591,103.41c0,0,28.83,16.06,48.12,55.12c19.29,39.05,39.41,91.88,76.471,156.11
		c37.06,64.24,96.35,110.47,172.939,114.36c76.59,3.88,140.83-55.42,194.47-87.18c53.65-31.76,104.12-35.53,148.12-16
		c32.87,14.59,75.061,50.59,84,114.59C1981.993,1072.347,1942.703,1129.046,1918.933,1147.876 M1209.053,669.756
		c34.201,21.772,57.864,61.457,72.191,98.612c36.701,94.555,104.198,217.463,211.57,240.434c8.998,1.953,18.272,2.919,27.469,3.268
		c6.559,0.172,13.141-0.069,19.654-0.667c-5.181-0.141-10.489-0.22-15.639-0.795c-4.933-0.397-10.58-1.213-15.445-2.077
		c-106.949-19.919-172.943-137.429-214.12-228.812c-7.455-16.792-14.54-33.992-24.479-49.548
		c-9.668-15.668-21.503-30.389-35.257-42.634C1227.131,680.681,1218.543,674.152,1209.053,669.756 M1232.582,513.756
		c23.602,9.907,43.509,28.448,49.498,53.747c3.525,15.001,3.6,31.078-1.604,45.705c-6.418,17.964-19.817,32.427-35.658,43.137
		c16.035-4.104,30.076-14.269,39.817-27.748c12.58-17.513,15.45-40.572,10.414-61.259c-2.939-12.465-9.319-24.321-18.375-33.327
		C1264.799,522.347,1249.117,514.802,1232.582,513.756 M1156.347,513.756c0,0-3.412,6.471-10,8.471v297.352h10V513.756z"/>
	<path clip-path="url(#SVGID_2_)" fill="#FBEE98" d="M1457.759,529.286c-39.524,15.399-62.706,83.647-54.589,166.588
		c8.118,82.941,48.472,120.706,96,113.882c47.529-6.823,56.472-52.235,56.472-52.235l7.058,4.235l2.354,15.765
		c-22.588,61.412-85.647,87.294-142.354,53.412c-56.705-33.882-75.646-112.471-79-138.059
		c-3.352-25.588-17.117-30.353-17.117-30.353c27-13.412,24.354-38.412,36.823-77.47c12.472-39.059,32.354-63.177,67.294-78.883
		c34.942-15.706,74.299-10.72,88.824-5.941c2.563,0.844,4.913,1.554,7.063,2.151c9.27,2.572,19.043,1.498,27.849-2.373
		c4.043-1.778,7.442-1.307,7.442-1.307c-1.883,10.706-3.941,28.117-9.235,58.47s-14.294,34.059-14.294,34.059
		C1540.348,528.933,1493.994,515.168,1457.759,529.286 M1463.877,510.227c0,0-52.941,10.588-74.472,58.941
		c-21.528,48.353-23.176,78.941-36.353,90.941c0,0,8.706,9.177,10.824,40c2.117,30.824,24.471,99.538,83.765,122.358
		c0,0-71.218-42.403-66.824-160.24C1385.994,523.404,1463.877,510.227,1463.877,510.227"/>
	<path clip-path="url(#SVGID_2_)" fill="#FBEE98" d="M1143.053,911.521H1042.7c0,0,17.412,16.588,17.412,28.411v156.177
		c0,55.059-32.706,74.588-32.706,74.588c58.588-10.823,70.117-68.765,69.234-107.765c-0.215-9.523-0.398-21.985-0.554-35.378
		c6.07-1.995,17.345-2.387,26.613-2.387c10.234,0,16.823,11.117,16.823,11.117c10.117-16.176,14.941-43.94,14.941-43.94
		s-10.236,4.588-23.177,5.765c-11.692,1.063-31.735-0.371-35.495-0.658c-0.27-32.356-0.387-61.754-0.387-61.754
		s10.059-1.765,39.176,2.294c29.118,4.059,35.471,33.706,35.471,33.706l3.706-69.823
		C1173.759,901.875,1162.641,911.521,1143.053,911.521 M1073.759,1113.141c3.146-15.325,3.009-30.862,2.754-46.419
		c-1.253-31.495-1.304-107.948-1.4-140.495h3.882c-0.162,45.489-0.614,95.247,0.51,140.461
		C1079.279,1082.204,1079.921,1098.561,1073.759,1113.141"/>
	<path clip-path="url(#SVGID_2_)" fill="#FBEE98" d="M948.347,908.109c35.719-1.8,61.411,29.882,68.941,57.412
		c7.529,27.529,5.647,47.294,13.412,56.47c0,0-4.236,12.942-8.706,35.53c-4.471,22.588-21.177,71.588-69.883,74.765
		c-48.705,3.176-66.705-45.353-71.823-64.235c-5.118-18.883-7.706-36.412-13.824-45.088c0,0,8-24.735,12.236-46.5
		C882.232,958.312,903.994,910.344,948.347,908.109 M911.641,1021.521c2.117,63.059,19.529,86.117,45.176,83.529
		c25.647-2.589,33.177-47.529,32.706-91.529c-0.47-44-17.139-85.594-43.412-82.412C927.17,933.403,909.523,958.462,911.641,1021.521
		 M910.641,945.228c-33.149,46.73-28.191,108.727,2.294,155.47c-4.775-12.747-9.164-25.471-12.391-38.431
		c-4.858-19.4-6.906-39.256-5.267-59.126C897.09,983.111,902.672,963.86,910.641,945.228 M986.229,940.109
		c23.734,49.863,22.356,108.796,1.883,159.529C1018.112,1053.807,1019.232,984.675,986.229,940.109"/>
</g>
</svg>
